<?xml version="1.0" encoding="UTF-8"?>
<svg xmlns="http://www.w3.org/2000/svg" xmlns:xlink="http://www.w3.org/1999/xlink" width="160.75pt" height="160.75pt" viewBox="0 0 160.75 160.75" version="1.2">
<g id="surface1">
<path style="fill:none;stroke-width:5;stroke-linecap:round;stroke-linejoin:round;stroke:rgb(0%,0%,0%);stroke-opacity:1;stroke-miterlimit:10;" d="M 38.262539 803.634574 L 38.536402 783.173114 L 38.810264 775.309341 L 39.35799 762.829024 L 40.375194 746.905861 L 41.588015 732.704121 L 42.683466 721.553995 L 47.378256 686.10833 L 52.151293 658.800301 L 57.276439 634.191777 L 66.900758 596.32047 L 76.172969 565.882582 L 85.09307 540.178606 L 94.560896 515.648328 L 103.676614 494.13054 L 113.37918 473.043108 L 122.76876 454.185702 L 131.727984 437.206211 L 141.31318 420.187597 L 150.507144 404.69479 L 160.287957 389.123736 L 169.71666 374.804627 L 178.832378 361.698338 L 188.456697 348.357309 L 197.768031 336.072609 L 206.688132 324.687743 L 216.195082 313.068138 L 225.389045 302.309244 L 235.130735 291.31561 L 244.481192 281.104442 L 253.518663 271.597492 L 262.477887 262.481775 " transform="matrix(0.0998447,0,0,-0.0998447,0,160.500388)"/>
<path style="fill:none;stroke-width:5;stroke-linecap:round;stroke-linejoin:round;stroke:rgb(0%,0%,0%);stroke-opacity:1;stroke-miterlimit:10;" d="M 38.262539 803.869314 L 38.536402 824.330774 L 38.810264 832.194547 L 39.35799 844.674864 L 40.375194 860.598027 L 41.588015 874.799767 L 42.683466 885.949893 L 47.378256 921.395558 L 52.151293 948.703587 L 57.276439 973.312111 L 66.900758 1011.144294 L 76.172969 1041.621306 L 85.09307 1067.325282 L 94.560896 1091.85556 L 103.676614 1113.373348 L 113.37918 1134.46078 L 122.76876 1153.318186 L 131.727984 1170.297677 L 141.31318 1187.316291 L 150.507144 1202.809098 L 160.287957 1218.380152 L 169.71666 1232.699261 L 178.832378 1245.80555 L 188.456697 1259.146579 L 197.768031 1271.431279 L 206.688132 1282.816145 L 216.195082 1294.43575 L 225.389045 1305.194644 L 235.130735 1316.188278 L 244.481192 1326.399446 L 253.518663 1335.906396 L 262.477887 1345.022113 " transform="matrix(0.0998447,0,0,-0.0998447,0,160.500388)"/>
<path style=" stroke:none;fill-rule:nonzero;fill:rgb(0%,100%,100%);fill-opacity:1;" d="M 3.820312 80.261719 L 3.847656 82.304688 L 3.875 83.089844 L 3.929688 84.335938 L 4.03125 85.925781 L 4.152344 87.34375 L 4.261719 88.457031 L 4.730469 91.996094 L 5.207031 94.722656 L 5.71875 97.179688 L 6.679688 100.960938 L 7.605469 104 L 8.496094 106.566406 L 9.441406 109.015625 L 10.351562 111.164062 L 11.320312 113.269531 L 12.257812 115.152344 L 13.152344 116.847656 L 14.109375 118.546875 L 15.027344 120.09375 L 16.003906 121.648438 L 16.945312 123.078125 L 17.855469 124.386719 L 18.816406 125.71875 L 19.746094 126.945312 L 20.636719 128.082031 L 21.585938 129.242188 L 22.503906 130.316406 L 23.476562 131.414062 L 24.410156 132.433594 L 25.3125 133.382812 L 26.207031 134.292969 L 26.207031 26.207031 L 25.3125 27.117188 L 24.410156 28.066406 L 23.476562 29.085938 L 22.503906 30.183594 L 21.585938 31.257812 L 20.636719 32.417969 L 19.746094 33.554688 L 18.816406 34.78125 L 17.855469 36.113281 L 16.945312 37.421875 L 16.003906 38.851562 L 15.027344 40.40625 L 14.109375 41.953125 L 13.152344 43.652344 L 12.257812 45.347656 L 11.320312 47.230469 L 10.351562 49.335938 L 9.441406 51.484375 L 8.496094 53.933594 L 7.605469 56.5 L 6.679688 59.542969 L 5.71875 63.320312 L 5.207031 65.777344 L 4.730469 68.503906 L 4.261719 72.042969 L 4.152344 73.15625 L 4.03125 74.574219 L 3.929688 76.164062 L 3.875 77.410156 L 3.847656 78.195312 L 3.820312 80.238281 "/>
<path style="fill:none;stroke-width:5;stroke-linecap:round;stroke-linejoin:round;stroke:rgb(0%,0%,0%);stroke-opacity:1;stroke-miterlimit:10;" d="M 38.262539 803.634574 L 38.536402 783.173114 L 38.810264 775.309341 L 39.35799 762.829024 L 40.375194 746.905861 L 41.588015 732.704121 L 42.683466 721.553995 L 47.378256 686.10833 L 52.151293 658.800301 L 57.276439 634.191777 L 66.900758 596.32047 L 76.172969 565.882582 L 85.09307 540.178606 L 94.560896 515.648328 L 103.676614 494.13054 L 113.37918 473.043108 L 122.76876 454.185702 L 131.727984 437.206211 L 141.31318 420.187597 L 150.507144 404.69479 L 160.287957 389.123736 L 169.71666 374.804627 L 178.832378 361.698338 L 188.456697 348.357309 L 197.768031 336.072609 L 206.688132 324.687743 L 216.195082 313.068138 L 225.389045 302.309244 L 235.130735 291.31561 L 244.481192 281.104442 L 253.518663 271.597492 L 262.477887 262.481775 " transform="matrix(0.0998447,0,0,-0.0998447,0,160.500388)"/>
<path style="fill:none;stroke-width:5;stroke-linecap:round;stroke-linejoin:round;stroke:rgb(0%,0%,0%);stroke-opacity:1;stroke-miterlimit:10;" d="M 38.262539 803.869314 L 38.536402 824.330774 L 38.810264 832.194547 L 39.35799 844.674864 L 40.375194 860.598027 L 41.588015 874.799767 L 42.683466 885.949893 L 47.378256 921.395558 L 52.151293 948.703587 L 57.276439 973.312111 L 66.900758 1011.144294 L 76.172969 1041.621306 L 85.09307 1067.325282 L 94.560896 1091.85556 L 103.676614 1113.373348 L 113.37918 1134.46078 L 122.76876 1153.318186 L 131.727984 1170.297677 L 141.31318 1187.316291 L 150.507144 1202.809098 L 160.287957 1218.380152 L 169.71666 1232.699261 L 178.832378 1245.80555 L 188.456697 1259.146579 L 197.768031 1271.431279 L 206.688132 1282.816145 L 216.195082 1294.43575 L 225.389045 1305.194644 L 235.130735 1316.188278 L 244.481192 1326.399446 L 253.518663 1335.906396 L 262.477887 1345.022113 " transform="matrix(0.0998447,0,0,-0.0998447,0,160.500388)"/>
<path style="fill:none;stroke-width:5;stroke-linecap:round;stroke-linejoin:round;stroke:rgb(0%,0%,0%);stroke-opacity:1;stroke-miterlimit:10;" d="M 262.477887 803.986684 L 263.808077 841.779743 L 265.020898 856.255346 L 267.759526 879.181571 L 272.689055 908.367516 L 278.40105 934.149738 L 283.839182 954.376458 L 306.374174 1017.325768 L 329.339522 1064.391038 L 354.300156 1105.353081 L 400.739454 1165.094285 L 445.457329 1209.460051 L 488.453781 1243.732018 L 534.267107 1273.152702 L 578.319887 1295.844187 L 625.189541 1314.740717 L 648.624368 1322.291505 L 670.337772 1328.316485 L 692.677148 1333.480754 L 713.76458 1337.471326 L 737.082037 1340.875049 L 758.208593 1343.105074 L 769.319596 1343.926662 L 775.383699 1344.278771 L 781.056571 1344.552634 L 785.868731 1344.709127 L 791.033 1344.86562 L 794.006367 1344.943867 L 795.453927 1344.943867 L 796.823241 1344.98299 L 797.996938 1344.98299 L 799.327129 1345.022113 L 807.621258 1345.022113 L 809.068818 1344.98299 L 810.672871 1344.98299 L 813.489745 1344.943867 L 816.18925 1344.86562 L 819.006124 1344.787374 L 824.053023 1344.630881 L 829.882387 1344.396141 L 835.320519 1344.083155 L 847.761713 1343.222444 L 859.576934 1342.126993 L 870.805307 1340.835925 " transform="matrix(0.0998447,0,0,-0.0998447,0,160.500388)"/>
<path style="fill:none;stroke-width:5;stroke-linecap:round;stroke-linejoin:round;stroke:rgb(0%,0%,0%);stroke-opacity:1;stroke-miterlimit:10;" d="M 870.805307 1340.835925 L 891.892739 1337.823435 L 914.427731 1333.598124 L 935.35867 1328.785964 L 979.880929 1315.562306 L 1027.220062 1296.744022 L 1072.798649 1273.426565 L 1116.694936 1245.375194 L 1163.368974 1208.325476 L 1208.282465 1163.372862 L 1251.513657 1107.856969 L 1275.613579 1068.968458 L 1297.522599 1025.463404 L 1308.437986 999.368196 L 1320.292331 965.526584 L 1325.691339 947.06041 L 1331.48158 924.095062 L 1336.371987 900.034263 L 1338.993245 884.267593 L 1341.810119 862.632436 L 1342.631707 854.61217 L 1343.492418 844.479248 L 1344.23576 833.211752 L 1345.018225 803.986684 " transform="matrix(0.0998447,0,0,-0.0998447,0,160.500388)"/>
<path style="fill:none;stroke-width:5;stroke-linecap:round;stroke-linejoin:round;stroke:rgb(0%,0%,0%);stroke-opacity:1;stroke-miterlimit:10;" d="M 262.477887 1345.022113 L 306.374174 1385.632047 L 354.300156 1423.385984 L 399.25277 1453.628256 L 442.523085 1478.628013 L 488.571151 1501.319498 L 532.897794 1519.707426 L 580.002187 1535.787082 L 625.385157 1548.150029 L 669.046705 1557.265747 L 691.151341 1560.904209 L 715.486003 1564.112315 L 738.607844 1566.45971 L 748.936382 1567.281299 L 760.243002 1567.985517 L 766.346229 1568.298503 L 772.0191 1568.572366 L 777.926711 1568.807105 L 783.247473 1568.963598 L 788.489988 1569.080968 L 790.91563 1569.120091 L 793.458641 1569.159215 L 796.158145 1569.198338 L 800.07047 1569.198338 L 801.361538 1569.237461 L 806.995286 1569.237461 L 808.325476 1569.198338 L 812.316048 1569.198338 L 815.289415 1569.159215 L 818.184535 1569.080968 L 820.844916 1569.041845 L 826.948143 1568.885352 L 837.041942 1568.494119 L 847.879082 1567.946394 L 859.498688 1567.203052 L 872.135498 1566.185848 L 895.022599 1563.760206 L 917.635838 1560.708593 L 941.579267 1556.718021 L 984.614843 1547.56318 L 1030.467292 1534.887247 L 1074.598318 1519.707426 L 1121.507096 1500.145801 " transform="matrix(0.0998447,0,0,-0.0998447,0,160.500388)"/>
<path style="fill:none;stroke-width:5;stroke-linecap:round;stroke-linejoin:round;stroke:rgb(0%,0%,0%);stroke-opacity:1;stroke-miterlimit:10;" d="M 1121.507096 1500.145801 L 1166.733573 1477.689055 L 1210.199504 1452.415435 L 1256.443186 1421.038589 L 1300.965445 1385.749417 L 1345.018225 1345.022113 " transform="matrix(0.0998447,0,0,-0.0998447,0,160.500388)"/>
<path style=" stroke:none;fill-rule:nonzero;fill:rgb(0%,100%,100%);fill-opacity:1;" d="M 26.207031 80.226562 L 26.339844 76.453125 L 26.460938 75.007812 L 26.734375 72.71875 L 27.226562 69.804688 L 27.796875 67.230469 L 28.339844 65.210938 L 30.589844 58.925781 L 32.882812 54.226562 L 35.375 50.136719 L 40.011719 44.171875 L 44.476562 39.742188 L 48.769531 36.320312 L 53.34375 33.382812 L 57.742188 31.117188 L 62.421875 29.230469 L 64.761719 28.476562 L 66.929688 27.875 L 69.160156 27.359375 L 71.265625 26.960938 L 73.59375 26.621094 L 75.703125 26.398438 L 76.8125 26.316406 L 77.417969 26.28125 L 77.984375 26.253906 L 78.464844 26.238281 L 78.980469 26.222656 L 79.277344 26.214844 L 79.421875 26.214844 L 79.558594 26.210938 L 79.675781 26.210938 L 79.808594 26.207031 L 80.636719 26.207031 L 80.78125 26.210938 L 80.941406 26.210938 L 81.222656 26.214844 L 81.492188 26.222656 L 81.773438 26.230469 L 82.277344 26.246094 L 82.859375 26.269531 L 83.402344 26.300781 L 84.644531 26.386719 L 85.824219 26.496094 L 86.945312 26.625 L 89.050781 26.925781 L 91.300781 27.347656 L 93.390625 27.828125 L 97.835938 29.148438 L 102.5625 31.027344 L 107.113281 33.355469 L 111.496094 36.15625 L 116.15625 39.855469 L 120.640625 44.34375 L 124.957031 49.886719 L 127.363281 53.769531 L 129.550781 58.113281 L 130.640625 60.71875 L 131.824219 64.097656 L 132.363281 65.941406 L 132.941406 68.234375 L 133.429688 70.636719 L 133.691406 72.210938 L 133.972656 74.371094 L 134.054688 75.171875 L 134.140625 76.183594 L 134.214844 77.308594 L 134.292969 80.226562 L 134.292969 26.207031 L 129.894531 22.140625 L 125.449219 18.617188 L 120.832031 15.484375 L 116.492188 12.960938 L 111.976562 10.71875 L 107.292969 8.765625 L 102.886719 7.25 L 98.308594 5.984375 L 94.011719 5.070312 L 91.621094 4.671875 L 89.363281 4.367188 L 87.078125 4.125 L 85.816406 4.023438 L 84.65625 3.949219 L 83.574219 3.894531 L 82.566406 3.855469 L 81.957031 3.839844 L 81.691406 3.835938 L 81.402344 3.828125 L 81.105469 3.824219 L 80.707031 3.824219 L 80.574219 3.820312 L 80.011719 3.820312 L 79.882812 3.824219 L 79.492188 3.824219 L 79.222656 3.828125 L 78.96875 3.832031 L 78.726562 3.835938 L 78.203125 3.847656 L 77.671875 3.863281 L 77.082031 3.886719 L 76.515625 3.914062 L 75.90625 3.945312 L 74.777344 4.015625 L 73.746094 4.097656 L 71.4375 4.332031 L 69.007812 4.652344 L 66.800781 5.015625 L 62.441406 5.925781 L 57.910156 7.160156 L 53.207031 8.765625 L 48.78125 10.601562 L 44.183594 12.867188 L 39.863281 15.363281 L 35.375 18.382812 L 30.589844 22.152344 L 26.207031 26.207031 "/>
<path style="fill:none;stroke-width:5;stroke-linecap:round;stroke-linejoin:round;stroke:rgb(0%,0%,0%);stroke-opacity:1;stroke-miterlimit:10;" d="M 262.477887 803.986684 L 263.808077 841.779743 L 265.020898 856.255346 L 267.759526 879.181571 L 272.689055 908.367516 L 278.40105 934.149738 L 283.839182 954.376458 L 306.374174 1017.325768 L 329.339522 1064.391038 L 354.300156 1105.353081 L 400.739454 1165.094285 L 445.457329 1209.460051 L 488.453781 1243.732018 L 534.267107 1273.152702 L 578.319887 1295.844187 L 625.189541 1314.740717 L 648.624368 1322.291505 L 670.337772 1328.316485 L 692.677148 1333.480754 L 713.76458 1337.471326 L 737.082037 1340.875049 L 758.208593 1343.105074 L 769.319596 1343.926662 L 775.383699 1344.278771 L 781.056571 1344.552634 L 785.868731 1344.709127 L 791.033 1344.86562 L 794.006367 1344.943867 L 795.453927 1344.943867 L 796.823241 1344.98299 L 797.996938 1344.98299 L 799.327129 1345.022113 L 807.621258 1345.022113 L 809.068818 1344.98299 L 810.672871 1344.98299 L 813.489745 1344.943867 L 816.18925 1344.86562 L 819.006124 1344.787374 L 824.053023 1344.630881 L 829.882387 1344.396141 L 835.320519 1344.083155 L 847.761713 1343.222444 L 859.576934 1342.126993 L 870.805307 1340.835925 " transform="matrix(0.0998447,0,0,-0.0998447,0,160.500388)"/>
<path style="fill:none;stroke-width:5;stroke-linecap:round;stroke-linejoin:round;stroke:rgb(0%,0%,0%);stroke-opacity:1;stroke-miterlimit:10;" d="M 870.805307 1340.835925 L 891.892739 1337.823435 L 914.427731 1333.598124 L 935.35867 1328.785964 L 979.880929 1315.562306 L 1027.220062 1296.744022 L 1072.798649 1273.426565 L 1116.694936 1245.375194 L 1163.368974 1208.325476 L 1208.282465 1163.372862 L 1251.513657 1107.856969 L 1275.613579 1068.968458 L 1297.522599 1025.463404 L 1308.437986 999.368196 L 1320.292331 965.526584 L 1325.691339 947.06041 L 1331.48158 924.095062 L 1336.371987 900.034263 L 1338.993245 884.267593 L 1341.810119 862.632436 L 1342.631707 854.61217 L 1343.492418 844.479248 L 1344.23576 833.211752 L 1345.018225 803.986684 " transform="matrix(0.0998447,0,0,-0.0998447,0,160.500388)"/>
<path style="fill:none;stroke-width:5;stroke-linecap:round;stroke-linejoin:round;stroke:rgb(0%,0%,0%);stroke-opacity:1;stroke-miterlimit:10;" d="M 262.477887 1345.022113 L 306.374174 1385.632047 L 354.300156 1423.385984 L 399.25277 1453.628256 L 442.523085 1478.628013 L 488.571151 1501.319498 L 532.897794 1519.707426 L 580.002187 1535.787082 L 625.385157 1548.150029 L 669.046705 1557.265747 L 691.151341 1560.904209 L 715.486003 1564.112315 L 738.607844 1566.45971 L 748.936382 1567.281299 L 760.243002 1567.985517 L 766.346229 1568.298503 L 772.0191 1568.572366 L 777.926711 1568.807105 L 783.247473 1568.963598 L 788.489988 1569.080968 L 790.91563 1569.120091 L 793.458641 1569.159215 L 796.158145 1569.198338 L 800.07047 1569.198338 L 801.361538 1569.237461 L 806.995286 1569.237461 L 808.325476 1569.198338 L 812.316048 1569.198338 L 815.289415 1569.159215 L 818.184535 1569.080968 L 820.844916 1569.041845 L 826.948143 1568.885352 L 837.041942 1568.494119 L 847.879082 1567.946394 L 859.498688 1567.203052 L 872.135498 1566.185848 L 895.022599 1563.760206 L 917.635838 1560.708593 L 941.579267 1556.718021 L 984.614843 1547.56318 L 1030.467292 1534.887247 L 1074.598318 1519.707426 L 1121.507096 1500.145801 " transform="matrix(0.0998447,0,0,-0.0998447,0,160.500388)"/>
<path style="fill:none;stroke-width:5;stroke-linecap:round;stroke-linejoin:round;stroke:rgb(0%,0%,0%);stroke-opacity:1;stroke-miterlimit:10;" d="M 1121.507096 1500.145801 L 1166.733573 1477.689055 L 1210.199504 1452.415435 L 1256.443186 1421.038589 L 1300.965445 1385.749417 L 1345.018225 1345.022113 " transform="matrix(0.0998447,0,0,-0.0998447,0,160.500388)"/>
<path style="fill:none;stroke-width:5;stroke-linecap:round;stroke-linejoin:round;stroke:rgb(0%,0%,0%);stroke-opacity:1;stroke-miterlimit:10;" d="M 262.477887 262.481775 L 306.374174 221.871841 L 354.300156 184.117904 L 399.25277 153.875632 L 442.523085 128.836752 L 488.571151 106.18439 L 532.897794 87.796462 L 580.002187 71.716806 L 625.385157 59.353859 L 669.046705 50.238142 L 691.151341 46.599679 L 715.486003 43.352449 L 738.607844 41.044178 L 748.936382 40.222589 L 760.243002 39.518371 L 766.346229 39.205385 L 772.0191 38.931522 L 777.926711 38.696783 L 783.247473 38.54029 L 788.489988 38.42292 L 790.91563 38.383797 L 793.458641 38.344673 L 796.158145 38.30555 L 798.662033 38.30555 L 800.07047 38.266427 L 806.995286 38.266427 L 808.325476 38.30555 L 812.316048 38.30555 L 815.289415 38.344673 L 818.184535 38.383797 L 820.844916 38.462043 L 826.948143 38.618536 L 837.041942 39.009769 L 847.879082 39.557494 L 859.498688 40.300836 L 872.135498 41.31804 L 895.022599 43.743682 L 917.635838 46.795295 L 941.579267 50.785867 L 984.614843 59.940708 L 1030.467292 72.616641 L 1074.598318 87.796462 L 1121.507096 107.358087 " transform="matrix(0.0998447,0,0,-0.0998447,0,160.500388)"/>
<path style="fill:none;stroke-width:5;stroke-linecap:round;stroke-linejoin:round;stroke:rgb(0%,0%,0%);stroke-opacity:1;stroke-miterlimit:10;" d="M 1121.507096 107.358087 L 1166.733573 129.814833 L 1210.199504 155.088453 L 1256.443186 186.465299 L 1300.965445 221.754471 L 1345.018225 262.481775 " transform="matrix(0.0998447,0,0,-0.0998447,0,160.500388)"/>
<path style="fill:none;stroke-width:5;stroke-linecap:round;stroke-linejoin:round;stroke:rgb(0%,0%,0%);stroke-opacity:1;stroke-miterlimit:10;" d="M 262.477887 803.517205 L 263.808077 765.724145 L 265.020898 751.248542 L 267.759526 728.322317 L 272.689055 699.136372 L 278.40105 673.315027 L 283.839182 653.12743 L 306.374174 590.17812 L 329.339522 543.11285 L 354.300156 502.150807 L 400.739454 442.409603 L 445.457329 398.043837 L 488.453781 363.77187 L 534.267107 334.312063 L 578.319887 311.659701 L 625.189541 292.763171 L 648.624368 285.17326 L 670.337772 279.187403 L 692.677148 273.98401 L 713.76458 269.993439 L 737.082037 266.589716 L 758.208593 264.398814 L 769.319596 263.577226 L 775.383699 263.225117 L 781.056571 262.951254 L 785.868731 262.794761 L 791.033 262.599145 L 794.006367 262.560021 L 795.453927 262.520898 L 797.996938 262.520898 L 799.327129 262.481775 L 807.621258 262.481775 L 809.068818 262.520898 L 810.672871 262.520898 L 813.489745 262.560021 L 816.18925 262.599145 L 819.006124 262.716514 L 824.053023 262.873007 L 829.882387 263.107747 L 835.320519 263.420733 L 847.761713 264.281444 L 859.576934 265.376895 L 870.805307 266.667963 " transform="matrix(0.0998447,0,0,-0.0998447,0,160.500388)"/>
<path style="fill:none;stroke-width:5;stroke-linecap:round;stroke-linejoin:round;stroke:rgb(0%,0%,0%);stroke-opacity:1;stroke-miterlimit:10;" d="M 870.805307 266.667963 L 891.892739 269.680453 L 914.427731 273.905764 L 935.35867 278.717924 L 979.880929 291.941582 L 1027.220062 310.759866 L 1072.798649 334.077323 L 1116.694936 362.08957 L 1163.368974 399.178412 L 1208.282465 444.131026 L 1251.513657 499.646919 L 1275.613579 538.53543 L 1297.522599 582.040484 L 1308.437986 608.135692 L 1320.292331 641.977304 L 1325.691339 660.443478 L 1331.48158 683.408826 L 1336.371987 707.469625 L 1338.993245 723.236295 L 1341.810119 744.871452 L 1342.631707 752.891719 L 1343.492418 763.02464 L 1344.23576 774.292136 L 1345.018225 803.517205 " transform="matrix(0.0998447,0,0,-0.0998447,0,160.500388)"/>
<path style=" stroke:none;fill-rule:nonzero;fill:rgb(0%,100%,100%);fill-opacity:1;" d="M 26.207031 134.292969 L 30.589844 138.347656 L 35.375 142.117188 L 39.863281 145.136719 L 44.183594 147.636719 L 48.78125 149.898438 L 53.207031 151.734375 L 57.910156 153.339844 L 62.441406 154.574219 L 66.800781 155.484375 L 69.007812 155.847656 L 71.4375 156.171875 L 73.746094 156.402344 L 74.777344 156.484375 L 75.90625 156.554688 L 76.515625 156.585938 L 77.082031 156.613281 L 77.671875 156.636719 L 78.203125 156.652344 L 78.726562 156.664062 L 78.96875 156.667969 L 79.222656 156.671875 L 79.492188 156.675781 L 79.742188 156.675781 L 79.882812 156.679688 L 80.574219 156.679688 L 80.707031 156.675781 L 81.105469 156.675781 L 81.402344 156.671875 L 81.691406 156.667969 L 81.957031 156.660156 L 82.566406 156.644531 L 83.574219 156.605469 L 84.65625 156.550781 L 85.816406 156.476562 L 87.078125 156.375 L 89.363281 156.132812 L 91.621094 155.828125 L 94.011719 155.429688 L 98.308594 154.515625 L 102.886719 153.25 L 107.292969 151.734375 L 111.976562 149.78125 L 116.492188 147.539062 L 120.832031 145.015625 L 125.449219 141.882812 L 129.894531 138.359375 L 134.292969 134.292969 L 134.292969 80.273438 L 134.214844 83.191406 L 134.140625 84.316406 L 134.054688 85.328125 L 133.972656 86.128906 L 133.691406 88.289062 L 133.429688 89.863281 L 132.941406 92.265625 L 132.363281 94.558594 L 131.824219 96.402344 L 130.640625 99.78125 L 129.550781 102.386719 L 127.363281 106.730469 L 124.957031 110.613281 L 120.640625 116.15625 L 116.15625 120.644531 L 111.496094 124.347656 L 107.113281 127.144531 L 102.5625 129.472656 L 97.835938 131.351562 L 93.390625 132.671875 L 91.300781 133.152344 L 89.050781 133.574219 L 86.945312 133.875 L 85.824219 134.003906 L 84.644531 134.113281 L 83.402344 134.199219 L 82.859375 134.230469 L 82.277344 134.253906 L 81.773438 134.269531 L 81.492188 134.28125 L 81.222656 134.285156 L 80.941406 134.289062 L 80.78125 134.289062 L 80.636719 134.292969 L 79.808594 134.292969 L 79.675781 134.289062 L 79.421875 134.289062 L 79.277344 134.285156 L 78.980469 134.28125 L 78.464844 134.261719 L 77.984375 134.246094 L 77.417969 134.21875 L 76.8125 134.183594 L 75.703125 134.101562 L 73.59375 133.882812 L 71.265625 133.542969 L 69.160156 133.144531 L 66.929688 132.625 L 64.761719 132.027344 L 62.421875 131.269531 L 57.742188 129.382812 L 53.34375 127.121094 L 48.769531 124.179688 L 44.476562 120.757812 L 40.011719 116.328125 L 35.375 110.363281 L 32.882812 106.273438 L 30.589844 101.574219 L 28.339844 95.289062 L 27.796875 93.273438 L 27.226562 90.695312 L 26.734375 87.78125 L 26.460938 85.492188 L 26.339844 84.046875 L 26.207031 80.273438 "/>
<path style="fill:none;stroke-width:5;stroke-linecap:round;stroke-linejoin:round;stroke:rgb(0%,0%,0%);stroke-opacity:1;stroke-miterlimit:10;" d="M 262.477887 262.481775 L 306.374174 221.871841 L 354.300156 184.117904 L 399.25277 153.875632 L 442.523085 128.836752 L 488.571151 106.18439 L 532.897794 87.796462 L 580.002187 71.716806 L 625.385157 59.353859 L 669.046705 50.238142 L 691.151341 46.599679 L 715.486003 43.352449 L 738.607844 41.044178 L 748.936382 40.222589 L 760.243002 39.518371 L 766.346229 39.205385 L 772.0191 38.931522 L 777.926711 38.696783 L 783.247473 38.54029 L 788.489988 38.42292 L 790.91563 38.383797 L 793.458641 38.344673 L 796.158145 38.30555 L 798.662033 38.30555 L 800.07047 38.266427 L 806.995286 38.266427 L 808.325476 38.30555 L 812.316048 38.30555 L 815.289415 38.344673 L 818.184535 38.383797 L 820.844916 38.462043 L 826.948143 38.618536 L 837.041942 39.009769 L 847.879082 39.557494 L 859.498688 40.300836 L 872.135498 41.31804 L 895.022599 43.743682 L 917.635838 46.795295 L 941.579267 50.785867 L 984.614843 59.940708 L 1030.467292 72.616641 L 1074.598318 87.796462 L 1121.507096 107.358087 " transform="matrix(0.0998447,0,0,-0.0998447,0,160.500388)"/>
<path style="fill:none;stroke-width:5;stroke-linecap:round;stroke-linejoin:round;stroke:rgb(0%,0%,0%);stroke-opacity:1;stroke-miterlimit:10;" d="M 1121.507096 107.358087 L 1166.733573 129.814833 L 1210.199504 155.088453 L 1256.443186 186.465299 L 1300.965445 221.754471 L 1345.018225 262.481775 " transform="matrix(0.0998447,0,0,-0.0998447,0,160.500388)"/>
<path style="fill:none;stroke-width:5;stroke-linecap:round;stroke-linejoin:round;stroke:rgb(0%,0%,0%);stroke-opacity:1;stroke-miterlimit:10;" d="M 262.477887 803.517205 L 263.808077 765.724145 L 265.020898 751.248542 L 267.759526 728.322317 L 272.689055 699.136372 L 278.40105 673.315027 L 283.839182 653.12743 L 306.374174 590.17812 L 329.339522 543.11285 L 354.300156 502.150807 L 400.739454 442.409603 L 445.457329 398.043837 L 488.453781 363.77187 L 534.267107 334.312063 L 578.319887 311.659701 L 625.189541 292.763171 L 648.624368 285.17326 L 670.337772 279.187403 L 692.677148 273.98401 L 713.76458 269.993439 L 737.082037 266.589716 L 758.208593 264.398814 L 769.319596 263.577226 L 775.383699 263.225117 L 781.056571 262.951254 L 785.868731 262.794761 L 791.033 262.599145 L 794.006367 262.560021 L 795.453927 262.520898 L 797.996938 262.520898 L 799.327129 262.481775 L 807.621258 262.481775 L 809.068818 262.520898 L 810.672871 262.520898 L 813.489745 262.560021 L 816.18925 262.599145 L 819.006124 262.716514 L 824.053023 262.873007 L 829.882387 263.107747 L 835.320519 263.420733 L 847.761713 264.281444 L 859.576934 265.376895 L 870.805307 266.667963 " transform="matrix(0.0998447,0,0,-0.0998447,0,160.500388)"/>
<path style="fill:none;stroke-width:5;stroke-linecap:round;stroke-linejoin:round;stroke:rgb(0%,0%,0%);stroke-opacity:1;stroke-miterlimit:10;" d="M 870.805307 266.667963 L 891.892739 269.680453 L 914.427731 273.905764 L 935.35867 278.717924 L 979.880929 291.941582 L 1027.220062 310.759866 L 1072.798649 334.077323 L 1116.694936 362.08957 L 1163.368974 399.178412 L 1208.282465 444.131026 L 1251.513657 499.646919 L 1275.613579 538.53543 L 1297.522599 582.040484 L 1308.437986 608.135692 L 1320.292331 641.977304 L 1325.691339 660.443478 L 1331.48158 683.408826 L 1336.371987 707.469625 L 1338.993245 723.236295 L 1341.810119 744.871452 L 1342.631707 752.891719 L 1343.492418 763.02464 L 1344.23576 774.292136 L 1345.018225 803.517205 " transform="matrix(0.0998447,0,0,-0.0998447,0,160.500388)"/>
<path style="fill:none;stroke-width:5;stroke-linecap:round;stroke-linejoin:round;stroke:rgb(0%,0%,0%);stroke-opacity:1;stroke-miterlimit:10;" d="M 1345.018225 262.481775 L 1354.133942 271.714862 L 1364.032125 282.16077 L 1373.343458 292.371938 L 1382.302683 302.543983 L 1391.848756 313.733233 L 1401.04272 325.000729 L 1410.784409 337.402799 L 1420.173989 349.92224 L 1429.21146 362.44168 L 1438.83578 376.447803 L 1448.10799 390.532173 L 1457.028091 404.773037 L 1466.495918 420.696199 L 1475.650758 436.971472 L 1485.314201 455.320276 L 1494.703781 474.255929 L 1503.663005 493.817554 L 1513.248202 516.39167 L 1522.442166 540.295976 L 1532.222978 568.699456 L 1541.651682 600.232795 L 1550.767399 636.578295 L 1555.344819 658.682932 L 1560.391719 687.868876 L 1562.582621 703.283437 L 1564.969139 723.118925 L 1566.103713 734.73853 L 1567.199164 748.001312 L 1568.177245 763.533243 L 1568.451108 768.932251 L 1568.724971 775.857066 L 1568.95971 783.525224 L 1569.233573 803.634574 " transform="matrix(0.0998447,0,0,-0.0998447,0,160.500388)"/>
<path style="fill:none;stroke-width:5;stroke-linecap:round;stroke-linejoin:round;stroke:rgb(0%,0%,0%);stroke-opacity:1;stroke-miterlimit:10;" d="M 1345.018225 1345.022113 L 1354.133942 1335.789026 L 1364.032125 1325.303995 L 1373.343458 1315.13195 L 1382.302683 1304.959905 L 1391.848756 1293.731532 L 1401.04272 1282.503159 L 1410.784409 1270.101089 L 1420.173989 1257.581649 L 1429.21146 1245.023085 L 1438.83578 1231.056085 L 1448.10799 1216.971715 L 1457.028091 1202.730851 L 1466.495918 1186.807689 L 1475.650758 1170.532416 L 1485.314201 1152.144489 L 1494.703781 1133.247959 L 1503.663005 1113.686334 L 1513.248202 1091.112218 L 1522.442166 1067.207912 L 1532.222978 1038.804432 L 1541.651682 1007.271093 L 1550.767399 970.925593 L 1555.344819 948.820956 L 1560.391719 919.635012 L 1562.582621 904.220451 L 1564.969139 884.384963 L 1566.103713 872.726234 L 1567.199164 859.463453 L 1568.177245 843.970645 L 1568.451108 838.532514 L 1568.724971 831.646822 L 1568.95971 823.939541 L 1569.233573 803.869314 " transform="matrix(0.0998447,0,0,-0.0998447,0,160.500388)"/>
<path style=" stroke:none;fill-rule:nonzero;fill:rgb(0%,100%,100%);fill-opacity:1;" d="M 134.292969 134.292969 L 135.203125 133.371094 L 136.191406 132.328125 L 137.121094 131.308594 L 138.015625 130.292969 L 138.96875 129.175781 L 139.886719 128.050781 L 140.859375 126.8125 L 141.796875 125.5625 L 142.699219 124.3125 L 143.660156 122.914062 L 144.585938 121.507812 L 145.476562 120.085938 L 146.421875 118.496094 L 147.335938 116.871094 L 148.300781 115.039062 L 149.238281 113.148438 L 150.132812 111.195312 L 151.089844 108.941406 L 152.007812 106.554688 L 152.984375 103.71875 L 153.925781 100.570312 L 154.835938 96.941406 L 155.292969 94.734375 L 155.796875 91.820312 L 156.015625 90.28125 L 156.253906 88.300781 L 156.367188 87.140625 L 156.476562 85.816406 L 156.574219 84.265625 L 156.601562 83.726562 L 156.628906 83.035156 L 156.652344 82.269531 L 156.679688 80.261719 L 156.679688 80.238281 L 156.652344 78.234375 L 156.628906 77.464844 L 156.601562 76.777344 L 156.574219 76.234375 L 156.476562 74.6875 L 156.367188 73.363281 L 156.253906 72.199219 L 156.015625 70.21875 L 155.796875 68.679688 L 155.292969 65.765625 L 154.835938 63.558594 L 153.925781 59.929688 L 152.984375 56.78125 L 152.007812 53.945312 L 151.089844 51.558594 L 150.132812 49.304688 L 149.238281 47.351562 L 148.300781 45.464844 L 147.335938 43.628906 L 146.421875 42.003906 L 145.476562 40.414062 L 144.585938 38.992188 L 143.660156 37.585938 L 142.699219 36.191406 L 141.796875 34.9375 L 140.859375 33.6875 L 139.886719 32.449219 L 138.96875 31.328125 L 138.015625 30.207031 L 137.121094 29.191406 L 136.191406 28.175781 L 135.203125 27.128906 L 134.292969 26.207031 "/>
<path style="fill:none;stroke-width:5;stroke-linecap:round;stroke-linejoin:round;stroke:rgb(0%,0%,0%);stroke-opacity:1;stroke-miterlimit:10;" d="M 1345.018225 262.481775 L 1354.133942 271.714862 L 1364.032125 282.16077 L 1373.343458 292.371938 L 1382.302683 302.543983 L 1391.848756 313.733233 L 1401.04272 325.000729 L 1410.784409 337.402799 L 1420.173989 349.92224 L 1429.21146 362.44168 L 1438.83578 376.447803 L 1448.10799 390.532173 L 1457.028091 404.773037 L 1466.495918 420.696199 L 1475.650758 436.971472 L 1485.314201 455.320276 L 1494.703781 474.255929 L 1503.663005 493.817554 L 1513.248202 516.39167 L 1522.442166 540.295976 L 1532.222978 568.699456 L 1541.651682 600.232795 L 1550.767399 636.578295 L 1555.344819 658.682932 L 1560.391719 687.868876 L 1562.582621 703.283437 L 1564.969139 723.118925 L 1566.103713 734.73853 L 1567.199164 748.001312 L 1568.177245 763.533243 L 1568.451108 768.932251 L 1568.724971 775.857066 L 1568.95971 783.525224 L 1569.233573 803.634574 " transform="matrix(0.0998447,0,0,-0.0998447,0,160.500388)"/>
<path style="fill:none;stroke-width:5;stroke-linecap:round;stroke-linejoin:round;stroke:rgb(0%,0%,0%);stroke-opacity:1;stroke-miterlimit:10;" d="M 1345.018225 1345.022113 L 1354.133942 1335.789026 L 1364.032125 1325.303995 L 1373.343458 1315.13195 L 1382.302683 1304.959905 L 1391.848756 1293.731532 L 1401.04272 1282.503159 L 1410.784409 1270.101089 L 1420.173989 1257.581649 L 1429.21146 1245.023085 L 1438.83578 1231.056085 L 1448.10799 1216.971715 L 1457.028091 1202.730851 L 1466.495918 1186.807689 L 1475.650758 1170.532416 L 1485.314201 1152.144489 L 1494.703781 1133.247959 L 1503.663005 1113.686334 L 1513.248202 1091.112218 L 1522.442166 1067.207912 L 1532.222978 1038.804432 L 1541.651682 1007.271093 L 1550.767399 970.925593 L 1555.344819 948.820956 L 1560.391719 919.635012 L 1562.582621 904.220451 L 1564.969139 884.384963 L 1566.103713 872.726234 L 1567.199164 859.463453 L 1568.177245 843.970645 L 1568.451108 838.532514 L 1568.724971 831.646822 L 1568.95971 823.939541 L 1569.233573 803.869314 " transform="matrix(0.0998447,0,0,-0.0998447,0,160.500388)"/>
</g>
</svg>
