<svg id="course" viewBox="0,0,300,300" xmlns="http://www.w3.org/2000/svg" width="300" height="300" style="border: 0.5pt dashed grey;">
<g stroke="darkgrey" stroke-width="1.5" class="edge"><line x1="195.90217281799102" y1="139.9828933800581" x2="202.96313698395846" y2="169.67921369186604"><title></title></line><line x1="231.48422990823082" y1="109.4268458699391" x2="244.3730262288747" y2="139.3538602205776"><title></title></line><line x1="67.00380188795128" y1="213.50831731983644" x2="93.4972342994" y2="231.19020122765215"><title></title></line><line x1="195.35646818181533" y1="109.36764060313936" x2="195.90217281799102" y2="139.9828933800581"><title></title></line><line x1="203.1083834721908" y1="86.79367710816395" x2="163.31045099613522" y2="93.57252496029298"><title></title></line><line x1="235.36202387953333" y1="196.24301257513977" x2="214.62115335149429" y2="219.87110717463855"><title></title></line><line x1="195.35646818181533" y1="109.36764060313936" x2="231.48422990823082" y2="109.4268458699391"><title></title></line><line x1="195.35646818181533" y1="109.36764060313936" x2="163.31045099613522" y2="93.57252496029298"><title></title></line><line x1="82.10228299999329" y1="112.30800438371749" x2="91.64017918686496" y2="85.29183130381439"><title></title></line><line x1="122.78295434748368" y1="99.84020553006573" x2="91.64017918686496" y2="85.29183130381439"><title></title></line><line x1="122.78295434748368" y1="99.84020553006573" x2="82.10228299999329" y2="112.30800438371749"><title></title></line><line x1="82.10228299999329" y1="112.30800438371749" x2="106.9034348428739" y2="132.12347050774508"><title></title></line><line x1="128.493740267913" y1="155.7024773089311" x2="106.9034348428739" y2="132.12347050774508"><title></title></line><line x1="106.9034348428739" y1="132.12347050774508" x2="77.06884981082162" y2="144.68164721547902"><title></title></line><line x1="108.0144575208878" y1="191.08904266821884" x2="77.00851096461115" y2="180.7463025235933"><title></title></line><line x1="136.6829957839482" y1="204.3618792729982" x2="108.0144575208878" y2="191.08904266821884"><title></title></line><line x1="158.30556685141627" y1="149.12693903565562" x2="128.493740267913" y2="155.7024773089311"><title></title></line><line x1="122.78295434748368" y1="99.84020553006573" x2="163.31045099613522" y2="93.57252496029298"><title></title></line><line x1="122.78295434748368" y1="99.84020553006573" x2="106.9034348428739" y2="132.12347050774508"><title></title></line><line x1="203.1083834721908" y1="86.79367710816395" x2="231.48422990823082" y2="109.4268458699391"><title></title></line></g><g stroke-width="1.5"><circle stroke="#1f77b4" r="5" fill="#1f77b4" class="gender-m" cx="177.08383485008946" cy="199.6345971049745"></circle><circle stroke="#1f77b4" r="5" fill="#1f77b4" class="gender-m" cx="93.4972342994" cy="231.19020122765215"></circle><circle stroke="#ff7f0e" r="5" fill="white" class="gender-wnb" cx="145.6264716789132" cy="51.84666910440284"></circle><circle stroke="#1f77b4" r="5" fill="#1f77b4" class="gender-m" cx="195.90217281799102" cy="139.9828933800581"></circle><circle stroke="#ff7f0e" r="5" fill="white" class="gender-wnb" cx="67.00380188795128" cy="213.50831731983644"></circle><circle stroke="#1f77b4" r="5" fill="#1f77b4" class="gender-m" cx="163.31045099613522" cy="93.57252496029298"></circle><circle stroke="#ff7f0e" r="5" fill="white" class="gender-wnb" cx="138.4818070191739" cy="246.17898243517723"></circle><circle stroke="#1f77b4" r="5" fill="#1f77b4" class="gender-m" cx="100.97940689347686" cy="56.36761021897573"></circle><circle stroke="#1f77b4" r="5" fill="#1f77b4" class="gender-m" cx="235.36202387953333" cy="196.24301257513977"></circle><circle stroke="#1f77b4" r="5" fill="#1f77b4" class="gender-m" cx="77.06884981082162" cy="144.68164721547902"></circle><circle stroke="#1f77b4" r="5" fill="#1f77b4" class="gender-m" cx="195.35646818181533" cy="109.36764060313936"></circle><circle stroke="#1f77b4" r="5" fill="#1f77b4" class="gender-m" cx="91.64017918686496" cy="85.29183130381439"></circle><circle stroke="#1f77b4" r="5" fill="#1f77b4" class="gender-m" cx="82.10228299999329" cy="112.30800438371749"></circle><circle stroke="#1f77b4" r="5" fill="#1f77b4" class="gender-m" cx="106.9034348428739" cy="132.12347050774508"></circle><circle stroke="#ff7f0e" r="5" fill="white" class="gender-wnb" cx="77.00851096461115" cy="180.7463025235933"></circle><circle stroke="#ff7f0e" r="5" fill="white" class="gender-wnb" cx="108.0144575208878" cy="191.08904266821884"></circle><circle stroke="#1f77b4" r="5" fill="#1f77b4" class="gender-m" cx="214.62115335149429" cy="219.87110717463855"></circle><circle stroke="#1f77b4" r="5" fill="#1f77b4" class="gender-m" cx="158.30556685141627" cy="149.12693903565562"></circle><circle stroke="#1f77b4" r="5" fill="#1f77b4" class="gender-m" cx="128.493740267913" cy="155.7024773089311"></circle><circle stroke="#ff7f0e" r="5" fill="white" class="gender-wnb" cx="136.6829957839482" cy="204.3618792729982"></circle><circle stroke="#1f77b4" r="5" fill="#1f77b4" class="gender-m" cx="122.78295434748368" cy="99.84020553006573"></circle><circle stroke="#ff7f0e" r="5" fill="white" class="gender-wnb" cx="231.48422990823082" cy="109.4268458699391"></circle><circle stroke="#ff7f0e" r="5" fill="white" class="gender-wnb" cx="203.1083834721908" cy="86.79367710816395"></circle><circle stroke="#1f77b4" r="5" fill="#1f77b4" class="gender-m" cx="191.8621882317574" cy="53.053496724173826"></circle><circle stroke="#1f77b4" r="5" fill="#1f77b4" class="gender-m" cx="178.0860194568275" cy="242.82083783041517"></circle></g><g><rect width="10" height="10" fill="black" class="anonymous" x="197.96313698395846" y="164.67921369186604"></rect><rect width="10" height="10" fill="black" class="anonymous" x="239.3730262288747" y="134.3538602205776"></rect></g></svg>
