<svg id="group-grades" xmlns="http://www.w3.org/2000/svg" xmlns:xlink="http://www.w3.org/1999/xlink" version="1.1" class="marks" width="433" height="122" viewBox="0 0 433 122"><rect width="433" height="122" fill="white"/><g fill="none" stroke-miterlimit="10" transform="translate(96,5)"><g class="mark-group role-frame root" role="graphics-object" aria-roledescription="group mark container"><g transform="translate(0,0)"><path class="background" aria-hidden="true" d="M0,0h0v0h0Z"/><g><g class="mark-group role-scope concat_0_group" role="graphics-object" aria-roledescription="group mark container"><g transform="translate(0,0)"><path class="background" aria-hidden="true" d="M0,0h300v80h-300Z"/><g><g class="mark-group role-axis" aria-hidden="true"><g transform="translate(0.5,80.5)"><path class="background" aria-hidden="true" d="M0,0h0v0h0Z" pointer-events="none"/><g><g class="mark-rule role-axis-grid" pointer-events="none"><line transform="translate(0,0)" x2="0" y2="-80" stroke="#ddd" stroke-width="1" opacity="1"/><line transform="translate(30,0)" x2="0" y2="-80" stroke="#ddd" stroke-width="1" opacity="1"/><line transform="translate(60,0)" x2="0" y2="-80" stroke="#ddd" stroke-width="1" opacity="1"/><line transform="translate(90,0)" x2="0" y2="-80" stroke="#ddd" stroke-width="1" opacity="1"/><line transform="translate(120,0)" x2="0" y2="-80" stroke="#ddd" stroke-width="1" opacity="1"/><line transform="translate(150,0)" x2="0" y2="-80" stroke="#ddd" stroke-width="1" opacity="1"/><line transform="translate(180,0)" x2="0" y2="-80" stroke="#ddd" stroke-width="1" opacity="1"/><line transform="translate(210,0)" x2="0" y2="-80" stroke="#ddd" stroke-width="1" opacity="1"/><line transform="translate(240,0)" x2="0" y2="-80" stroke="#ddd" stroke-width="1" opacity="1"/><line transform="translate(270,0)" x2="0" y2="-80" stroke="#ddd" stroke-width="1" opacity="1"/><line transform="translate(300,0)" x2="0" y2="-80" stroke="#ddd" stroke-width="1" opacity="1"/></g></g><path class="foreground" aria-hidden="true" d="" pointer-events="none" display="none"/></g></g><g class="mark-group role-axis" role="graphics-symbol" aria-roledescription="axis" aria-label="X-axis titled 'grade' for a linear scale with values from 0 to 100"><g transform="translate(0.5,80.5)"><path class="background" aria-hidden="true" d="M0,0h0v0h0Z" pointer-events="none"/><g><g class="mark-rule role-axis-tick" pointer-events="none"><line transform="translate(0,0)" x2="0" y2="5" stroke="#888" stroke-width="1" opacity="1"/><line transform="translate(30,0)" x2="0" y2="5" stroke="#888" stroke-width="1" opacity="1"/><line transform="translate(60,0)" x2="0" y2="5" stroke="#888" stroke-width="1" opacity="1"/><line transform="translate(90,0)" x2="0" y2="5" stroke="#888" stroke-width="1" opacity="1"/><line transform="translate(120,0)" x2="0" y2="5" stroke="#888" stroke-width="1" opacity="1"/><line transform="translate(150,0)" x2="0" y2="5" stroke="#888" stroke-width="1" opacity="1"/><line transform="translate(180,0)" x2="0" y2="5" stroke="#888" stroke-width="1" opacity="1"/><line transform="translate(210,0)" x2="0" y2="5" stroke="#888" stroke-width="1" opacity="1"/><line transform="translate(240,0)" x2="0" y2="5" stroke="#888" stroke-width="1" opacity="1"/><line transform="translate(270,0)" x2="0" y2="5" stroke="#888" stroke-width="1" opacity="1"/><line transform="translate(300,0)" x2="0" y2="5" stroke="#888" stroke-width="1" opacity="1"/></g><g class="mark-text role-axis-label" pointer-events="none"><text text-anchor="start" transform="translate(0,15)" font-family="sans-serif" font-size="10px" fill="#000" opacity="1">0</text><text text-anchor="middle" transform="translate(30,15)" font-family="sans-serif" font-size="10px" fill="#000" opacity="1">10</text><text text-anchor="middle" transform="translate(60,15)" font-family="sans-serif" font-size="10px" fill="#000" opacity="1">20</text><text text-anchor="middle" transform="translate(90,15)" font-family="sans-serif" font-size="10px" fill="#000" opacity="1">30</text><text text-anchor="middle" transform="translate(120,15)" font-family="sans-serif" font-size="10px" fill="#000" opacity="1">40</text><text text-anchor="middle" transform="translate(150,15)" font-family="sans-serif" font-size="10px" fill="#000" opacity="1">50</text><text text-anchor="middle" transform="translate(180,15)" font-family="sans-serif" font-size="10px" fill="#000" opacity="1">60</text><text text-anchor="middle" transform="translate(210,15)" font-family="sans-serif" font-size="10px" fill="#000" opacity="1">70</text><text text-anchor="middle" transform="translate(240,15)" font-family="sans-serif" font-size="10px" fill="#000" opacity="1">80</text><text text-anchor="middle" transform="translate(270,15)" font-family="sans-serif" font-size="10px" fill="#000" opacity="1">90</text><text text-anchor="end" transform="translate(300,15)" font-family="sans-serif" font-size="10px" fill="#000" opacity="1">100</text></g><g class="mark-rule role-axis-domain" pointer-events="none"><line transform="translate(0,0)" x2="300" y2="0" stroke="#888" stroke-width="1" opacity="1"/></g><g class="mark-text role-axis-title" pointer-events="none"><text text-anchor="middle" transform="translate(150,30)" font-family="sans-serif" font-size="11px" font-weight="bold" fill="#000" opacity="1">grade</text></g></g><path class="foreground" aria-hidden="true" d="" pointer-events="none" display="none"/></g></g><g class="mark-group role-axis" role="graphics-symbol" aria-roledescription="axis" aria-label="Y-axis for a discrete scale with 4 values: None, Instructor only, Peers only, Instructor + peers"><g transform="translate(-4.5,0.5)"><path class="background" aria-hidden="true" d="M0,0h0v0h0Z" pointer-events="none"/><g><g class="mark-rule role-axis-tick" pointer-events="none"><line transform="translate(0,10)" x2="-5" y2="0" stroke="#888" stroke-width="1" opacity="1"/><line transform="translate(0,30)" x2="-5" y2="0" stroke="#888" stroke-width="1" opacity="1"/><line transform="translate(0,50)" x2="-5" y2="0" stroke="#888" stroke-width="1" opacity="1"/><line transform="translate(0,70)" x2="-5" y2="0" stroke="#888" stroke-width="1" opacity="1"/></g><g class="mark-text role-axis-label" pointer-events="none"><text text-anchor="end" transform="translate(-7,12.5)" font-family="sans-serif" font-size="10px" fill="#000" opacity="1">None</text><text text-anchor="end" transform="translate(-7,32.5)" font-family="sans-serif" font-size="10px" fill="#000" opacity="1">Instructor only</text><text text-anchor="end" transform="translate(-7,52.5)" font-family="sans-serif" font-size="10px" fill="#000" opacity="1">Peers only</text><text text-anchor="end" transform="translate(-7,72.5)" font-family="sans-serif" font-size="10px" fill="#000" opacity="1">Instructor + peers</text></g><g class="mark-rule role-axis-domain" pointer-events="none"><line transform="translate(0,0)" x2="0" y2="80" stroke="#888" stroke-width="1" opacity="1"/></g></g><path class="foreground" aria-hidden="true" d="" pointer-events="none" display="none"/></g></g><g class="mark-rect role-mark concat_0_layer_0_marks" role="graphics-object" aria-roledescription="rect mark container"><path aria-label="grade: 95.38; group: None" role="graphics-symbol" aria-roledescription="tick" d="M285.64,2.5h1v15h-1Z" fill="grey" opacity="0.6"/><path aria-label="grade: 86.92; group: Instructor + peers" role="graphics-symbol" aria-roledescription="tick" d="M260.26,62.5h1v15h-1Z" fill="grey" opacity="0.6"/><path aria-label="grade: 90; group: Instructor + peers" role="graphics-symbol" aria-roledescription="tick" d="M269.5,62.5h1v15h-1Z" fill="grey" opacity="0.6"/><path aria-label="grade: 49.29; group: Peers only" role="graphics-symbol" aria-roledescription="tick" d="M147.37,42.5h1v15h-1Z" fill="grey" opacity="0.6"/><path aria-label="grade: 90; group: Peers only" role="graphics-symbol" aria-roledescription="tick" d="M269.5,42.5h1v15h-1Z" fill="grey" opacity="0.6"/><path aria-label="grade: 33.85; group: Instructor + peers" role="graphics-symbol" aria-roledescription="tick" d="M101.05000000000001,62.5h1v15h-1Z" fill="grey" opacity="0.6"/><path aria-label="grade: 87.69; group: Instructor + peers" role="graphics-symbol" aria-roledescription="tick" d="M262.57,62.5h1v15h-1Z" fill="grey" opacity="0.6"/><path aria-label="grade: 0; group: None" role="graphics-symbol" aria-roledescription="tick" d="M-0.5,2.5h1v15h-1Z" fill="grey" opacity="0.6"/><path aria-label="grade: 55.38; group: Peers only" role="graphics-symbol" aria-roledescription="tick" d="M165.64000000000001,42.5h1v15h-1Z" fill="grey" opacity="0.6"/><path aria-label="grade: 82.31; group: Peers only" role="graphics-symbol" aria-roledescription="tick" d="M246.43,42.5h1v15h-1Z" fill="grey" opacity="0.6"/><path aria-label="grade: 66.92; group: Instructor + peers" role="graphics-symbol" aria-roledescription="tick" d="M200.26,62.5h1v15h-1Z" fill="grey" opacity="0.6"/><path aria-label="grade: 73.85; group: Instructor + peers" role="graphics-symbol" aria-roledescription="tick" d="M221.04999999999998,62.5h1v15h-1Z" fill="grey" opacity="0.6"/><path aria-label="grade: 66.15; group: Instructor + peers" role="graphics-symbol" aria-roledescription="tick" d="M197.95000000000002,62.5h1v15h-1Z" fill="grey" opacity="0.6"/><path aria-label="grade: 93.85; group: Instructor only" role="graphics-symbol" aria-roledescription="tick" d="M281.04999999999995,22.5h1v15h-1Z" fill="grey" opacity="0.6"/><path aria-label="grade: 98.46; group: Instructor only" role="graphics-symbol" aria-roledescription="tick" d="M294.88,22.5h1v15h-1Z" fill="grey" opacity="0.6"/><path aria-label="grade: 83.85; group: Instructor + peers" role="graphics-symbol" aria-roledescription="tick" d="M251.04999999999998,62.5h1v15h-1Z" fill="grey" opacity="0.6"/><path aria-label="grade: 71.54; group: Instructor only" role="graphics-symbol" aria-roledescription="tick" d="M214.12,22.5h1v15h-1Z" fill="grey" opacity="0.6"/><path aria-label="grade: 96.15; group: Peers only" role="graphics-symbol" aria-roledescription="tick" d="M287.95,42.5h1v15h-1Z" fill="grey" opacity="0.6"/><path aria-label="grade: 82.31; group: Instructor + peers" role="graphics-symbol" aria-roledescription="tick" d="M246.43,62.5h1v15h-1Z" fill="grey" opacity="0.6"/><path aria-label="grade: 95.38; group: Instructor + peers" role="graphics-symbol" aria-roledescription="tick" d="M285.64,62.5h1v15h-1Z" fill="grey" opacity="0.6"/><path aria-label="grade: 86.15; group: Peers only" role="graphics-symbol" aria-roledescription="tick" d="M257.95,42.5h1v15h-1Z" fill="grey" opacity="0.6"/><path aria-label="grade: 95.38; group: Instructor + peers" role="graphics-symbol" aria-roledescription="tick" d="M285.64,62.5h1v15h-1Z" fill="grey" opacity="0.6"/><path aria-label="grade: 93.85; group: Instructor + peers" role="graphics-symbol" aria-roledescription="tick" d="M281.04999999999995,62.5h1v15h-1Z" fill="grey" opacity="0.6"/><path aria-label="grade: 83.85; group: Peers only" role="graphics-symbol" aria-roledescription="tick" d="M251.04999999999998,42.5h1v15h-1Z" fill="grey" opacity="0.6"/><path aria-label="grade: 78.46; group: Instructor + peers" role="graphics-symbol" aria-roledescription="tick" d="M234.88,62.5h1v15h-1Z" fill="grey" opacity="0.6"/><path aria-label="grade: 40.77; group: Instructor + peers" role="graphics-symbol" aria-roledescription="tick" d="M121.81,62.5h1v15h-1Z" fill="grey" opacity="0.6"/><path aria-label="grade: 60; group: Instructor + peers" role="graphics-symbol" aria-roledescription="tick" d="M179.5,62.5h1v15h-1Z" fill="grey" opacity="0.6"/><path aria-label="grade: 70.77; group: Peers only" role="graphics-symbol" aria-roledescription="tick" d="M211.81,42.5h1v15h-1Z" fill="grey" opacity="0.6"/><path aria-label="grade: 95.1612903; group: Instructor only" role="graphics-symbol" aria-roledescription="tick" d="M284.9838709,22.5h1v15h-1Z" fill="grey" opacity="0.6"/><path aria-label="grade: 70.1612903; group: Instructor only" role="graphics-symbol" aria-roledescription="tick" d="M209.9838709,22.5h1v15h-1Z" fill="grey" opacity="0.6"/><path aria-label="grade: 0; group: Instructor + peers" role="graphics-symbol" aria-roledescription="tick" d="M-0.5,62.5h1v15h-1Z" fill="grey" opacity="0.6"/><path aria-label="grade: 92.7419355; group: Peers only" role="graphics-symbol" aria-roledescription="tick" d="M277.7258065,42.5h1v15h-1Z" fill="grey" opacity="0.6"/><path aria-label="grade: 89.516129; group: Peers only" role="graphics-symbol" aria-roledescription="tick" d="M268.04838700000005,42.5h1v15h-1Z" fill="grey" opacity="0.6"/><path aria-label="grade: 95.1612903; group: Instructor + peers" role="graphics-symbol" aria-roledescription="tick" d="M284.9838709,62.5h1v15h-1Z" fill="grey" opacity="0.6"/><path aria-label="grade: 66.9354839; group: Peers only" role="graphics-symbol" aria-roledescription="tick" d="M200.3064517,42.5h1v15h-1Z" fill="grey" opacity="0.6"/><path aria-label="grade: 82.2580645; group: Instructor + peers" role="graphics-symbol" aria-roledescription="tick" d="M246.27419350000002,62.5h1v15h-1Z" fill="grey" opacity="0.6"/><path aria-label="grade: 88.3064516; group: Instructor + peers" role="graphics-symbol" aria-roledescription="tick" d="M264.4193548,62.5h1v15h-1Z" fill="grey" opacity="0.6"/><path aria-label="grade: 91.5322581; group: Instructor + peers" role="graphics-symbol" aria-roledescription="tick" d="M274.0967743,62.5h1v15h-1Z" fill="grey" opacity="0.6"/><path aria-label="grade: 67.7419355; group: Instructor + peers" role="graphics-symbol" aria-roledescription="tick" d="M202.72580649999998,62.5h1v15h-1Z" fill="grey" opacity="0.6"/><path aria-label="grade: 83.0645161; group: Instructor + peers" role="graphics-symbol" aria-roledescription="tick" d="M248.6935483,62.5h1v15h-1Z" fill="grey" opacity="0.6"/><path aria-label="grade: 27.4193548; group: None" role="graphics-symbol" aria-roledescription="tick" d="M81.75806440000001,2.5h1v15h-1Z" fill="grey" opacity="0.6"/><path aria-label="grade: 77.41935484; group: Peers only" role="graphics-symbol" aria-roledescription="tick" d="M231.75806452,42.5h1v15h-1Z" fill="grey" opacity="0.6"/><path aria-label="grade: 54.8387097; group: Instructor only" role="graphics-symbol" aria-roledescription="tick" d="M164.0161291,22.5h1v15h-1Z" fill="grey" opacity="0.6"/><path aria-label="grade: 58.8709677; group: Peers only" role="graphics-symbol" aria-roledescription="tick" d="M176.11290309999998,42.5h1v15h-1Z" fill="grey" opacity="0.6"/><path aria-label="grade: 62.0967742; group: Peers only" role="graphics-symbol" aria-roledescription="tick" d="M185.79032260000002,42.5h1v15h-1Z" fill="grey" opacity="0.6"/><path aria-label="grade: 58.8709677; group: Instructor + peers" role="graphics-symbol" aria-roledescription="tick" d="M176.11290309999998,62.5h1v15h-1Z" fill="grey" opacity="0.6"/><path aria-label="grade: 71.7741935; group: Instructor + peers" role="graphics-symbol" aria-roledescription="tick" d="M214.82258050000002,62.5h1v15h-1Z" fill="grey" opacity="0.6"/><path aria-label="grade: 77.4193548; group: Instructor + peers" role="graphics-symbol" aria-roledescription="tick" d="M231.7580644,62.5h1v15h-1Z" fill="grey" opacity="0.6"/><path aria-label="grade: 89.516129; group: Instructor + peers" role="graphics-symbol" aria-roledescription="tick" d="M268.04838700000005,62.5h1v15h-1Z" fill="grey" opacity="0.6"/><path aria-label="grade: 95.1612903; group: Instructor + peers" role="graphics-symbol" aria-roledescription="tick" d="M284.9838709,62.5h1v15h-1Z" fill="grey" opacity="0.6"/><path aria-label="grade: 82.6612903; group: Instructor + peers" role="graphics-symbol" aria-roledescription="tick" d="M247.4838709,62.5h1v15h-1Z" fill="grey" opacity="0.6"/><path aria-label="grade: 51.6129032; group: Peers only" role="graphics-symbol" aria-roledescription="tick" d="M154.33870960000002,42.5h1v15h-1Z" fill="grey" opacity="0.6"/><path aria-label="grade: 68.9516129; group: Instructor + peers" role="graphics-symbol" aria-roledescription="tick" d="M206.35483870000002,62.5h1v15h-1Z" fill="grey" opacity="0.6"/><path aria-label="grade: 54.0322581; group: Peers only" role="graphics-symbol" aria-roledescription="tick" d="M161.5967743,42.5h1v15h-1Z" fill="grey" opacity="0.6"/><path aria-label="grade: 76.6129032; group: Instructor only" role="graphics-symbol" aria-roledescription="tick" d="M229.33870960000002,22.5h1v15h-1Z" fill="grey" opacity="0.6"/><path aria-label="grade: 0; group: None" role="graphics-symbol" aria-roledescription="tick" d="M-0.5,2.5h1v15h-1Z" fill="grey" opacity="0.6"/><path aria-label="grade: 90.3225806; group: Instructor + peers" role="graphics-symbol" aria-roledescription="tick" d="M270.46774180000006,62.5h1v15h-1Z" fill="grey" opacity="0.6"/><path aria-label="grade: 33.8709677; group: None" role="graphics-symbol" aria-roledescription="tick" d="M101.1129031,2.5h1v15h-1Z" fill="grey" opacity="0.6"/><path aria-label="grade: 75.8064516; group: Peers only" role="graphics-symbol" aria-roledescription="tick" d="M226.9193548,42.5h1v15h-1Z" fill="grey" opacity="0.6"/><path aria-label="grade: 46.7741935; group: Instructor + peers" role="graphics-symbol" aria-roledescription="tick" d="M139.82258050000002,62.5h1v15h-1Z" fill="grey" opacity="0.6"/><path aria-label="grade: 70.9677419; group: Instructor + peers" role="graphics-symbol" aria-roledescription="tick" d="M212.4032257,62.5h1v15h-1Z" fill="grey" opacity="0.6"/><path aria-label="grade: 75.8064516; group: Instructor + peers" role="graphics-symbol" aria-roledescription="tick" d="M226.9193548,62.5h1v15h-1Z" fill="grey" opacity="0.6"/><path aria-label="grade: 62.5; group: Instructor only" role="graphics-symbol" aria-roledescription="tick" d="M187,22.5h1v15h-1Z" fill="grey" opacity="0.6"/><path aria-label="grade: 93.5606061; group: Instructor + peers" role="graphics-symbol" aria-roledescription="tick" d="M280.1818183,62.5h1v15h-1Z" fill="grey" opacity="0.6"/><path aria-label="grade: 78.7878788; group: Instructor + peers" role="graphics-symbol" aria-roledescription="tick" d="M235.8636364,62.5h1v15h-1Z" fill="grey" opacity="0.6"/><path aria-label="grade: 74.1060606; group: Instructor only" role="graphics-symbol" aria-roledescription="tick" d="M221.8181818,22.5h1v15h-1Z" fill="grey" opacity="0.6"/><path aria-label="grade: 81.1969697; group: Instructor + peers" role="graphics-symbol" aria-roledescription="tick" d="M243.0909091,62.5h1v15h-1Z" fill="grey" opacity="0.6"/><path aria-label="grade: 79.3030303; group: None" role="graphics-symbol" aria-roledescription="tick" d="M237.4090909,2.5h1v15h-1Z" fill="grey" opacity="0.6"/><path aria-label="grade: 90.7878788; group: Instructor + peers" role="graphics-symbol" aria-roledescription="tick" d="M271.8636364,62.5h1v15h-1Z" fill="grey" opacity="0.6"/><path aria-label="grade: 83.0909091; group: Instructor + peers" role="graphics-symbol" aria-roledescription="tick" d="M248.77272730000004,62.5h1v15h-1Z" fill="grey" opacity="0.6"/><path aria-label="grade: 94.3181818; group: None" role="graphics-symbol" aria-roledescription="tick" d="M282.45454540000003,2.5h1v15h-1Z" fill="grey" opacity="0.6"/><path aria-label="grade: 73.8484848; group: Peers only" role="graphics-symbol" aria-roledescription="tick" d="M221.04545440000004,42.5h1v15h-1Z" fill="grey" opacity="0.6"/><path aria-label="grade: 82.5151515; group: Instructor only" role="graphics-symbol" aria-roledescription="tick" d="M247.0454545,22.5h1v15h-1Z" fill="grey" opacity="0.6"/><path aria-label="grade: 68.15151515; group: Peers only" role="graphics-symbol" aria-roledescription="tick" d="M203.95454544999998,42.5h1v15h-1Z" fill="grey" opacity="0.6"/><path aria-label="grade: 61.469697; group: Peers only" role="graphics-symbol" aria-roledescription="tick" d="M183.909091,42.5h1v15h-1Z" fill="grey" opacity="0.6"/><path aria-label="grade: 42.0151515; group: Peers only" role="graphics-symbol" aria-roledescription="tick" d="M125.54545449999998,42.5h1v15h-1Z" fill="grey" opacity="0.6"/><path aria-label="grade: 62.7727273; group: Peers only" role="graphics-symbol" aria-roledescription="tick" d="M187.81818189999998,42.5h1v15h-1Z" fill="grey" opacity="0.6"/><path aria-label="grade: 44.6666667; group: None" role="graphics-symbol" aria-roledescription="tick" d="M133.5000001,2.5h1v15h-1Z" fill="grey" opacity="0.6"/><path aria-label="grade: 66.8636364; group: Instructor only" role="graphics-symbol" aria-roledescription="tick" d="M200.0909092,22.5h1v15h-1Z" fill="grey" opacity="0.6"/><path aria-label="grade: 83.5757576; group: None" role="graphics-symbol" aria-roledescription="tick" d="M250.2272728,2.5h1v15h-1Z" fill="grey" opacity="0.6"/><path aria-label="grade: 41.1363636; group: None" role="graphics-symbol" aria-roledescription="tick" d="M122.90909079999999,2.5h1v15h-1Z" fill="grey" opacity="0.6"/><path aria-label="grade: 71.3333333; group: Instructor + peers" role="graphics-symbol" aria-roledescription="tick" d="M213.4999999,62.5h1v15h-1Z" fill="grey" opacity="0.6"/><path aria-label="grade: 72.8636364; group: Instructor + peers" role="graphics-symbol" aria-roledescription="tick" d="M218.09090920000003,62.5h1v15h-1Z" fill="grey" opacity="0.6"/><path aria-label="grade: 70.9545455; group: None" role="graphics-symbol" aria-roledescription="tick" d="M212.36363649999998,2.5h1v15h-1Z" fill="grey" opacity="0.6"/><path aria-label="grade: 55.8030303; group: Instructor only" role="graphics-symbol" aria-roledescription="tick" d="M166.9090909,22.5h1v15h-1Z" fill="grey" opacity="0.6"/><path aria-label="grade: 55.9393939; group: Peers only" role="graphics-symbol" aria-roledescription="tick" d="M167.3181817,42.5h1v15h-1Z" fill="grey" opacity="0.6"/></g><g class="mark-symbol role-mark concat_0_layer_1_marks" role="graphics-object" aria-roledescription="symbol mark container"><path aria-label="Mean of grade: 51.874988; group: None" role="graphics-symbol" aria-roledescription="circle" transform="translate(155.624964,10)" d="M3.536,0A3.536,3.536,0,1,1,-3.536,0A3.536,3.536,0,1,1,3.536,0" fill="firebrick" stroke-width="2"/><path aria-label="Mean of grade: 76.08228836; group: Instructor + peers" role="graphics-symbol" aria-roledescription="circle" transform="translate(228.24686508,70)" d="M3.536,0A3.536,3.536,0,1,1,-3.536,0A3.536,3.536,0,1,1,3.536,0" fill="firebrick" stroke-width="2"/><path aria-label="Mean of grade: 69.8751838126; group: Peers only" role="graphics-symbol" aria-roledescription="circle" transform="translate(209.62555143782612,50)" d="M3.536,0A3.536,3.536,0,1,1,-3.536,0A3.536,3.536,0,1,1,3.536,0" fill="firebrick" stroke-width="2"/><path aria-label="Mean of grade: 75.201006025; group: Instructor only" role="graphics-symbol" aria-roledescription="circle" transform="translate(225.603018075,30)" d="M3.536,0A3.536,3.536,0,1,1,-3.536,0A3.536,3.536,0,1,1,3.536,0" fill="firebrick" stroke-width="2"/></g><g class="mark-rule role-mark concat_0_layer_2_marks" role="graphics-object" aria-roledescription="rule mark container"><line aria-label="grade: 31.738323902; group: None; upper_grade: 70.4739996009; Ci1 of grade: 70.4739996009; Ci0 of grade: 31.738323902; Mean of grade: 51.874988" role="graphics-symbol" aria-roledescription="errorbar" transform="translate(95.21497170613635,10)" x2="116.20702709659086" y2="0" stroke="firebrick" stroke-width="2"/><line aria-label="grade: 69.7364095904; group: Instructor + peers; upper_grade: 81.4934418442; Ci1 of grade: 81.4934418442; Ci0 of grade: 69.7364095904; Mean of grade: 76.08228836" role="graphics-symbol" aria-roledescription="errorbar" transform="translate(209.20922877131247,70)" x2="35.27109676125002" y2="0" stroke="firebrick" stroke-width="2"/><line aria-label="grade: 63.6578006085; group: Peers only; upper_grade: 76.1258592615; Ci1 of grade: 76.1258592615; Ci0 of grade: 63.6578006085; Mean of grade: 69.8751838126" role="graphics-symbol" aria-roledescription="errorbar" transform="translate(190.97340182559788,50)" x2="37.40417595899996" y2="0" stroke="firebrick" stroke-width="2"/><line aria-label="grade: 67.2972747894; group: Instructor only; upper_grade: 83.4808177904; Ci1 of grade: 83.4808177904; Ci0 of grade: 67.2972747894; Mean of grade: 75.201006025" role="graphics-symbol" aria-roledescription="errorbar" transform="translate(201.891824368125,30)" x2="48.55062900312501" y2="0" stroke="firebrick" stroke-width="2"/></g></g><path class="foreground" aria-hidden="true" d="" display="none"/></g></g><g class="mark-group role-scope concat_1_group" role="graphics-object" aria-roledescription="group mark container"><g transform="translate(309,0)"><path class="background" aria-hidden="true" d="M0,0h20v80h-20Z"/><g><g class="mark-text role-mark concat_1_marks" role="graphics-object" aria-roledescription="text mark container"><text aria-label="group: None; n: n=11" role="graphics-symbol" aria-roledescription="text mark" text-anchor="middle" transform="translate(10,13)" font-family="sans-serif" font-size="11px" fill="black">n=11</text><text aria-label="group: Instructor + peers; n: n=40" role="graphics-symbol" aria-roledescription="text mark" text-anchor="middle" transform="translate(10,73)" font-family="sans-serif" font-size="11px" fill="black">n=40</text><text aria-label="group: Peers only; n: n=23" role="graphics-symbol" aria-roledescription="text mark" text-anchor="middle" transform="translate(10,53)" font-family="sans-serif" font-size="11px" fill="black">n=23</text><text aria-label="group: Instructor only; n: n=12" role="graphics-symbol" aria-roledescription="text mark" text-anchor="middle" transform="translate(10,33)" font-family="sans-serif" font-size="11px" fill="black">n=12</text></g></g><path class="foreground" aria-hidden="true" d="" display="none"/></g></g></g><path class="foreground" aria-hidden="true" d="" display="none"/></g></g></g></svg>
