<svg id="course" viewBox="0,0,300,300" xmlns="http://www.w3.org/2000/svg" width="300" height="300" style="border: 0.5pt dashed grey;">
<g stroke="darkgrey" stroke-width="1.5" class="edge"><line x1="66.650270856755" y1="197.62516249179487" x2="51.885408610784964" y2="169.19517592981921"><title></title></line><line x1="59.783613721355735" y1="138.57354579000264" x2="51.885408610784964" y2="169.19517592981921"><title></title></line><line x1="176.33845288671475" y1="134.83850208989315" x2="165.59941648081792" y2="164.16800290482536"><title></title></line><line x1="59.783613721355735" y1="138.57354579000264" x2="62.16093496074614" y2="106.96193018368317"><title></title></line><line x1="89.59135687316362" y1="124.74554410033785" x2="59.783613721355735" y2="138.57354579000264"><title></title></line><line x1="132.80681461538637" y1="154.52113468074015" x2="165.59941648081792" y2="164.16800290482536"><title></title></line><line x1="173.2435107591674" y1="229.64041898651337" x2="177.5466180231668" y2="197.254753975518"><title></title></line><line x1="206.02058308101843" y1="199.7874771757766" x2="173.2435107591674" y2="229.64041898651337"><title></title></line><line x1="125.18572814125145" y1="190.344123175804" x2="132.80681461538637" y2="154.52113468074015"><title></title></line><line x1="206.02058308101843" y1="199.7874771757766" x2="177.5466180231668" y2="197.254753975518"><title></title></line><line x1="203.54920279934467" y1="230.87290933075565" x2="177.5466180231668" y2="197.254753975518"><title></title></line><line x1="165.59941648081792" y1="164.16800290482536" x2="177.5466180231668" y2="197.254753975518"><title></title></line><line x1="89.59135687316362" y1="124.74554410033785" x2="62.16093496074614" y2="106.96193018368317"><title></title></line><line x1="206.02058308101843" y1="199.7874771757766" x2="203.54920279934467" y2="230.87290933075565"><title></title></line><line x1="233.22357580908056" y1="214.74311540873097" x2="203.54920279934467" y2="230.87290933075565"><title></title></line><line x1="173.2435107591674" y1="229.64041898651337" x2="203.54920279934467" y2="230.87290933075565"><title></title></line><line x1="177.6160036274586" y1="90.30821569054783" x2="147.26942411888032" y2="99.3372810590966"><title></title></line><line x1="177.6160036274586" y1="90.30821569054783" x2="205.91864847272413" y2="74.29338289171527"><title></title></line><line x1="125.18572814125145" y1="190.344123175804" x2="103.27883430640365" y2="167.3258928936732"><title></title></line><line x1="103.27883430640365" y1="167.3258928936732" x2="132.80681461538637" y2="154.52113468074015"><title></title></line><line x1="205.91864847272413" y1="74.29338289171527" x2="224.43604829954225" y2="98.69065267239925"><title></title></line><line x1="83.75859756268427" y1="223.61564491706432" x2="66.650270856755" y2="197.62516249179487"><title></title></line><line x1="173.2435107591674" y1="229.64041898651337" x2="140.45674985398335" y2="220.7391005855918"><title></title></line><line x1="125.18572814125145" y1="190.344123175804" x2="140.45674985398335" y2="220.7391005855918"><title></title></line><line x1="170.3698721809817" y1="48.11334148229673" x2="139.2285097091862" y2="51.746330750851"><title></title></line><line x1="218.49391115721133" y1="145.05543815580936" x2="243.72080477660376" y2="163.5173008697231"><title></title></line><line x1="206.02058308101843" y1="199.7874771757766" x2="233.22357580908056" y2="214.74311540873097"><title></title></line><line x1="139.2285097091862" y1="51.746330750851" x2="111.34678751570851" y2="63.729731577711256"><title></title></line></g><g stroke-width="1.5"><circle stroke="#ff7f0e" r="5" fill="white" class="gender-wnb" cx="170.3698721809817" cy="48.11334148229673"></circle><circle stroke="#ff7f0e" r="5" fill="white" class="gender-wnb" cx="206.02058308101843" cy="199.7874771757766"></circle><circle stroke="#1f77b4" r="5" fill="#1f77b4" class="gender-m" cx="177.6160036274586" cy="90.30821569054783"></circle><circle stroke="#1f77b4" r="5" fill="#1f77b4" class="gender-m" cx="205.91864847272413" cy="74.29338289171527"></circle><circle stroke="#ff7f0e" r="5" fill="white" class="gender-wnb" cx="233.22357580908056" cy="214.74311540873097"></circle><circle stroke="#ff7f0e" r="5" fill="white" class="gender-wnb" cx="139.2285097091862" cy="51.746330750851"></circle><circle stroke="#1f77b4" r="5" fill="#1f77b4" class="gender-m" cx="122.53848876995154" cy="253.56706452835041"></circle><circle stroke="#ff7f0e" r="5" fill="white" class="gender-wnb" cx="132.80681461538637" cy="154.52113468074015"></circle><circle stroke="#ff7f0e" r="5" fill="white" class="gender-wnb" cx="125.18572814125145" cy="190.344123175804"></circle><circle stroke="#ff7f0e" r="5" fill="white" class="gender-wnb" cx="89.59135687316362" cy="124.74554410033785"></circle><circle stroke="#1f77b4" r="5" fill="#1f77b4" class="gender-m" cx="147.26942411888032" cy="99.3372810590966"></circle><circle stroke="#ff7f0e" r="5" fill="white" class="gender-wnb" cx="243.72080477660376" cy="163.5173008697231"></circle><circle stroke="#ff7f0e" r="5" fill="white" class="gender-wnb" cx="62.16093496074614" cy="106.96193018368317"></circle><circle stroke="#ff7f0e" r="5" fill="white" class="gender-wnb" cx="254.18482070058838" cy="123.08856496224298"></circle><circle stroke="#ff7f0e" r="5" fill="white" class="gender-wnb" cx="103.27883430640365" cy="167.3258928936732"></circle><circle stroke="#ff7f0e" r="5" fill="white" class="gender-wnb" cx="176.33845288671475" cy="134.83850208989315"></circle><circle stroke="#ff7f0e" r="5" fill="white" class="gender-wnb" cx="224.43604829954225" cy="98.69065267239925"></circle><circle stroke="#ff7f0e" r="5" fill="white" class="gender-wnb" cx="59.783613721355735" cy="138.57354579000264"></circle><circle stroke="#ff7f0e" r="5" fill="white" class="gender-wnb" cx="165.59941648081792" cy="164.16800290482536"></circle><circle stroke="#ff7f0e" r="5" fill="white" class="gender-wnb" cx="51.885408610784964" cy="169.19517592981921"></circle><circle stroke="#ff7f0e" r="5" fill="white" class="gender-wnb" cx="83.59150594151663" cy="78.55865654145992"></circle><circle stroke="#ff7f0e" r="5" fill="white" class="gender-wnb" cx="173.2435107591674" cy="229.64041898651337"></circle><circle stroke="#ff7f0e" r="5" fill="white" class="gender-wnb" cx="203.54920279934467" cy="230.87290933075565"></circle><circle stroke="#ff7f0e" r="5" fill="white" class="gender-wnb" cx="218.49391115721133" cy="145.05543815580936"></circle><circle stroke="#ff7f0e" r="5" fill="white" class="gender-wnb" cx="83.75859756268427" cy="223.61564491706432"></circle><circle stroke="#ff7f0e" r="5" fill="white" class="gender-wnb" cx="66.650270856755" cy="197.62516249179487"></circle><circle stroke="#ff7f0e" r="5" fill="white" class="gender-wnb" cx="177.5466180231668" cy="197.254753975518"></circle><circle stroke="#ff7f0e" r="5" fill="white" class="gender-wnb" cx="140.45674985398335" cy="220.7391005855918"></circle></g><g><rect width="10" height="10" fill="black" class="anonymous" x="106.34678751570851" y="58.729731577711256"></rect></g></svg>
