<svg id="isolation-grade" xmlns="http://www.w3.org/2000/svg" xmlns:xlink="http://www.w3.org/1999/xlink" version="1.1" class="marks" width="377" height="82" viewBox="0 0 377 82"><rect width="377" height="82" fill="white"/><g fill="none" stroke-miterlimit="10" transform="translate(71,5)"><g class="mark-group role-frame root" role="graphics-object" aria-roledescription="group mark container"><g transform="translate(0,0)"><path class="background" aria-hidden="true" d="M0.5,0.5h300v40h-300Z" stroke="#ddd"/><g><g class="mark-group role-axis" aria-hidden="true"><g transform="translate(0.5,40.5)"><path class="background" aria-hidden="true" d="M0,0h0v0h0Z" pointer-events="none"/><g><g class="mark-rule role-axis-grid" pointer-events="none"><line transform="translate(0,0)" x2="0" y2="-40" stroke="#ddd" stroke-width="1" opacity="1"/><line transform="translate(30,0)" x2="0" y2="-40" stroke="#ddd" stroke-width="1" opacity="1"/><line transform="translate(60,0)" x2="0" y2="-40" stroke="#ddd" stroke-width="1" opacity="1"/><line transform="translate(90,0)" x2="0" y2="-40" stroke="#ddd" stroke-width="1" opacity="1"/><line transform="translate(120,0)" x2="0" y2="-40" stroke="#ddd" stroke-width="1" opacity="1"/><line transform="translate(150,0)" x2="0" y2="-40" stroke="#ddd" stroke-width="1" opacity="1"/><line transform="translate(180,0)" x2="0" y2="-40" stroke="#ddd" stroke-width="1" opacity="1"/><line transform="translate(210,0)" x2="0" y2="-40" stroke="#ddd" stroke-width="1" opacity="1"/><line transform="translate(240,0)" x2="0" y2="-40" stroke="#ddd" stroke-width="1" opacity="1"/><line transform="translate(270,0)" x2="0" y2="-40" stroke="#ddd" stroke-width="1" opacity="1"/><line transform="translate(300,0)" x2="0" y2="-40" stroke="#ddd" stroke-width="1" opacity="1"/></g></g><path class="foreground" aria-hidden="true" d="" pointer-events="none" display="none"/></g></g><g class="mark-group role-axis" role="graphics-symbol" aria-roledescription="axis" aria-label="X-axis titled 'Summative Score' for a linear scale with values from 0 to 100"><g transform="translate(0.5,40.5)"><path class="background" aria-hidden="true" d="M0,0h0v0h0Z" pointer-events="none"/><g><g class="mark-rule role-axis-tick" pointer-events="none"><line transform="translate(0,0)" x2="0" y2="5" stroke="#888" stroke-width="1" opacity="1"/><line transform="translate(30,0)" x2="0" y2="5" stroke="#888" stroke-width="1" opacity="1"/><line transform="translate(60,0)" x2="0" y2="5" stroke="#888" stroke-width="1" opacity="1"/><line transform="translate(90,0)" x2="0" y2="5" stroke="#888" stroke-width="1" opacity="1"/><line transform="translate(120,0)" x2="0" y2="5" stroke="#888" stroke-width="1" opacity="1"/><line transform="translate(150,0)" x2="0" y2="5" stroke="#888" stroke-width="1" opacity="1"/><line transform="translate(180,0)" x2="0" y2="5" stroke="#888" stroke-width="1" opacity="1"/><line transform="translate(210,0)" x2="0" y2="5" stroke="#888" stroke-width="1" opacity="1"/><line transform="translate(240,0)" x2="0" y2="5" stroke="#888" stroke-width="1" opacity="1"/><line transform="translate(270,0)" x2="0" y2="5" stroke="#888" stroke-width="1" opacity="1"/><line transform="translate(300,0)" x2="0" y2="5" stroke="#888" stroke-width="1" opacity="1"/></g><g class="mark-text role-axis-label" pointer-events="none"><text text-anchor="start" transform="translate(0,15)" font-family="sans-serif" font-size="10px" fill="#000" opacity="1">0</text><text text-anchor="middle" transform="translate(30,15)" font-family="sans-serif" font-size="10px" fill="#000" opacity="1">10</text><text text-anchor="middle" transform="translate(60,15)" font-family="sans-serif" font-size="10px" fill="#000" opacity="1">20</text><text text-anchor="middle" transform="translate(90,15)" font-family="sans-serif" font-size="10px" fill="#000" opacity="1">30</text><text text-anchor="middle" transform="translate(120,15)" font-family="sans-serif" font-size="10px" fill="#000" opacity="1">40</text><text text-anchor="middle" transform="translate(150,15)" font-family="sans-serif" font-size="10px" fill="#000" opacity="1">50</text><text text-anchor="middle" transform="translate(180,15)" font-family="sans-serif" font-size="10px" fill="#000" opacity="1">60</text><text text-anchor="middle" transform="translate(210,15)" font-family="sans-serif" font-size="10px" fill="#000" opacity="1">70</text><text text-anchor="middle" transform="translate(240,15)" font-family="sans-serif" font-size="10px" fill="#000" opacity="1">80</text><text text-anchor="middle" transform="translate(270,15)" font-family="sans-serif" font-size="10px" fill="#000" opacity="1">90</text><text text-anchor="end" transform="translate(300,15)" font-family="sans-serif" font-size="10px" fill="#000" opacity="1">100</text></g><g class="mark-rule role-axis-domain" pointer-events="none"><line transform="translate(0,0)" x2="300" y2="0" stroke="#888" stroke-width="1" opacity="1"/></g><g class="mark-text role-axis-title" pointer-events="none"><text text-anchor="middle" transform="translate(150,30)" font-family="sans-serif" font-size="11px" font-weight="bold" fill="#000" opacity="1">Summative Score</text></g></g><path class="foreground" aria-hidden="true" d="" pointer-events="none" display="none"/></g></g><g class="mark-group role-axis" role="graphics-symbol" aria-roledescription="axis" aria-label="Y-axis for a discrete scale with 2 values: Isolated, Not Isolated"><g transform="translate(-4.5,0.5)"><path class="background" aria-hidden="true" d="M0,0h0v0h0Z" pointer-events="none"/><g><g class="mark-rule role-axis-tick" pointer-events="none"><line transform="translate(0,10)" x2="-5" y2="0" stroke="#888" stroke-width="1" opacity="1"/><line transform="translate(0,30)" x2="-5" y2="0" stroke="#888" stroke-width="1" opacity="1"/></g><g class="mark-text role-axis-label" pointer-events="none"><text text-anchor="end" transform="translate(-7,12.5)" font-family="sans-serif" font-size="10px" fill="#000" opacity="1">Isolated</text><text text-anchor="end" transform="translate(-7,32.5)" font-family="sans-serif" font-size="10px" fill="#000" opacity="1">Not Isolated</text></g><g class="mark-rule role-axis-domain" pointer-events="none"><line transform="translate(0,0)" x2="0" y2="40" stroke="#888" stroke-width="1" opacity="1"/></g></g><path class="foreground" aria-hidden="true" d="" pointer-events="none" display="none"/></g></g><g class="mark-rect role-mark layer_0_marks" role="graphics-object" aria-roledescription="rect mark container"><path aria-label="Summative Score: 95.8333333; isolated: Not Isolated" role="graphics-symbol" aria-roledescription="tick" d="M286.99999990000003,22.5h1v15h-1Z" fill="grey" opacity="0.7"/><path aria-label="Summative Score: 83.3333333; isolated: Not Isolated" role="graphics-symbol" aria-roledescription="tick" d="M249.49999990000003,22.5h1v15h-1Z" fill="grey" opacity="0.7"/><path aria-label="Summative Score: 100; isolated: Not Isolated" role="graphics-symbol" aria-roledescription="tick" d="M299.5,22.5h1v15h-1Z" fill="grey" opacity="0.7"/><path aria-label="Summative Score: 85.4166667; isolated: Not Isolated" role="graphics-symbol" aria-roledescription="tick" d="M255.75000009999997,22.5h1v15h-1Z" fill="grey" opacity="0.7"/><path aria-label="Summative Score: 95.8333333; isolated: Not Isolated" role="graphics-symbol" aria-roledescription="tick" d="M286.99999990000003,22.5h1v15h-1Z" fill="grey" opacity="0.7"/><path aria-label="Summative Score: 85.4166667; isolated: Not Isolated" role="graphics-symbol" aria-roledescription="tick" d="M255.75000009999997,22.5h1v15h-1Z" fill="grey" opacity="0.7"/><path aria-label="Summative Score: 95.8333333; isolated: Not Isolated" role="graphics-symbol" aria-roledescription="tick" d="M286.99999990000003,22.5h1v15h-1Z" fill="grey" opacity="0.7"/><path aria-label="Summative Score: 95.8333333; isolated: Not Isolated" role="graphics-symbol" aria-roledescription="tick" d="M286.99999990000003,22.5h1v15h-1Z" fill="grey" opacity="0.7"/><path aria-label="Summative Score: 64.5833333; isolated: Not Isolated" role="graphics-symbol" aria-roledescription="tick" d="M193.24999990000003,22.5h1v15h-1Z" fill="grey" opacity="0.7"/><path aria-label="Summative Score: 91.6666667; isolated: Not Isolated" role="graphics-symbol" aria-roledescription="tick" d="M274.50000009999997,22.5h1v15h-1Z" fill="grey" opacity="0.7"/><path aria-label="Summative Score: 87.5; isolated: Isolated" role="graphics-symbol" aria-roledescription="tick" d="M262,2.5h1v15h-1Z" fill="grey" opacity="0.7"/><path aria-label="Summative Score: 93.75; isolated: Not Isolated" role="graphics-symbol" aria-roledescription="tick" d="M280.75,22.5h1v15h-1Z" fill="grey" opacity="0.7"/><path aria-label="Summative Score: 97.9166667; isolated: Not Isolated" role="graphics-symbol" aria-roledescription="tick" d="M293.25000009999997,22.5h1v15h-1Z" fill="grey" opacity="0.7"/><path aria-label="Summative Score: 93.75; isolated: Not Isolated" role="graphics-symbol" aria-roledescription="tick" d="M280.75,22.5h1v15h-1Z" fill="grey" opacity="0.7"/><path aria-label="Summative Score: 95.8333333; isolated: Not Isolated" role="graphics-symbol" aria-roledescription="tick" d="M286.99999990000003,22.5h1v15h-1Z" fill="grey" opacity="0.7"/><path aria-label="Summative Score: 100; isolated: Not Isolated" role="graphics-symbol" aria-roledescription="tick" d="M299.5,22.5h1v15h-1Z" fill="grey" opacity="0.7"/><path aria-label="Summative Score: 100; isolated: Not Isolated" role="graphics-symbol" aria-roledescription="tick" d="M299.5,22.5h1v15h-1Z" fill="grey" opacity="0.7"/><path aria-label="Summative Score: 89.5833333; isolated: Isolated" role="graphics-symbol" aria-roledescription="tick" d="M268.24999990000003,2.5h1v15h-1Z" fill="grey" opacity="0.7"/><path aria-label="Summative Score: 93.75; isolated: Not Isolated" role="graphics-symbol" aria-roledescription="tick" d="M280.75,22.5h1v15h-1Z" fill="grey" opacity="0.7"/><path aria-label="Summative Score: 72.9166667; isolated: Not Isolated" role="graphics-symbol" aria-roledescription="tick" d="M218.25000009999997,22.5h1v15h-1Z" fill="grey" opacity="0.7"/><path aria-label="Summative Score: 70.8333333; isolated: Not Isolated" role="graphics-symbol" aria-roledescription="tick" d="M211.99999990000003,22.5h1v15h-1Z" fill="grey" opacity="0.7"/><path aria-label="Summative Score: 95.8333333; isolated: Not Isolated" role="graphics-symbol" aria-roledescription="tick" d="M286.99999990000003,22.5h1v15h-1Z" fill="grey" opacity="0.7"/><path aria-label="Summative Score: 62.5; isolated: Not Isolated" role="graphics-symbol" aria-roledescription="tick" d="M187,22.5h1v15h-1Z" fill="grey" opacity="0.7"/><path aria-label="Summative Score: 91.6666667; isolated: Not Isolated" role="graphics-symbol" aria-roledescription="tick" d="M274.50000009999997,22.5h1v15h-1Z" fill="grey" opacity="0.7"/><path aria-label="Summative Score: 83.3333333; isolated: Not Isolated" role="graphics-symbol" aria-roledescription="tick" d="M249.49999990000003,22.5h1v15h-1Z" fill="grey" opacity="0.7"/><path aria-label="Summative Score: 102; isolated: Isolated" role="graphics-symbol" aria-roledescription="tick" d="M299.5,2.5h1v15h-1Z" fill="grey" opacity="0.7"/><path aria-label="Summative Score: 80; isolated: Not Isolated" role="graphics-symbol" aria-roledescription="tick" d="M239.5,22.5h1v15h-1Z" fill="grey" opacity="0.7"/><path aria-label="Summative Score: 62.67; isolated: Isolated" role="graphics-symbol" aria-roledescription="tick" d="M187.51000000000002,2.5h1v15h-1Z" fill="grey" opacity="0.7"/><path aria-label="Summative Score: 85.33; isolated: Not Isolated" role="graphics-symbol" aria-roledescription="tick" d="M255.48999999999998,22.5h1v15h-1Z" fill="grey" opacity="0.7"/><path aria-label="Summative Score: 90; isolated: Not Isolated" role="graphics-symbol" aria-roledescription="tick" d="M269.5,22.5h1v15h-1Z" fill="grey" opacity="0.7"/><path aria-label="Summative Score: 82; isolated: Not Isolated" role="graphics-symbol" aria-roledescription="tick" d="M245.49999999999997,22.5h1v15h-1Z" fill="grey" opacity="0.7"/><path aria-label="Summative Score: 72; isolated: Isolated" role="graphics-symbol" aria-roledescription="tick" d="M215.5,2.5h1v15h-1Z" fill="grey" opacity="0.7"/><path aria-label="Summative Score: 86.67; isolated: Isolated" role="graphics-symbol" aria-roledescription="tick" d="M259.51,2.5h1v15h-1Z" fill="grey" opacity="0.7"/><path aria-label="Summative Score: 94; isolated: Not Isolated" role="graphics-symbol" aria-roledescription="tick" d="M281.5,22.5h1v15h-1Z" fill="grey" opacity="0.7"/><path aria-label="Summative Score: 68; isolated: Not Isolated" role="graphics-symbol" aria-roledescription="tick" d="M203.50000000000003,22.5h1v15h-1Z" fill="grey" opacity="0.7"/><path aria-label="Summative Score: 80.67; isolated: Not Isolated" role="graphics-symbol" aria-roledescription="tick" d="M241.51,22.5h1v15h-1Z" fill="grey" opacity="0.7"/><path aria-label="Summative Score: 82.67; isolated: Not Isolated" role="graphics-symbol" aria-roledescription="tick" d="M247.51,22.5h1v15h-1Z" fill="grey" opacity="0.7"/><path aria-label="Summative Score: 87.33; isolated: Not Isolated" role="graphics-symbol" aria-roledescription="tick" d="M261.49,22.5h1v15h-1Z" fill="grey" opacity="0.7"/><path aria-label="Summative Score: 102; isolated: Not Isolated" role="graphics-symbol" aria-roledescription="tick" d="M299.5,22.5h1v15h-1Z" fill="grey" opacity="0.7"/><path aria-label="Summative Score: 92; isolated: Not Isolated" role="graphics-symbol" aria-roledescription="tick" d="M275.5,22.5h1v15h-1Z" fill="grey" opacity="0.7"/><path aria-label="Summative Score: 101.33; isolated: Not Isolated" role="graphics-symbol" aria-roledescription="tick" d="M299.5,22.5h1v15h-1Z" fill="grey" opacity="0.7"/><path aria-label="Summative Score: 36; isolated: Not Isolated" role="graphics-symbol" aria-roledescription="tick" d="M107.5,22.5h1v15h-1Z" fill="grey" opacity="0.7"/><path aria-label="Summative Score: 94.67; isolated: Not Isolated" role="graphics-symbol" aria-roledescription="tick" d="M283.51,22.5h1v15h-1Z" fill="grey" opacity="0.7"/><path aria-label="Summative Score: 41.33; isolated: Not Isolated" role="graphics-symbol" aria-roledescription="tick" d="M123.49,22.5h1v15h-1Z" fill="grey" opacity="0.7"/><path aria-label="Summative Score: 94.67; isolated: Not Isolated" role="graphics-symbol" aria-roledescription="tick" d="M283.51,22.5h1v15h-1Z" fill="grey" opacity="0.7"/><path aria-label="Summative Score: 100.67; isolated: Not Isolated" role="graphics-symbol" aria-roledescription="tick" d="M299.5,22.5h1v15h-1Z" fill="grey" opacity="0.7"/><path aria-label="Summative Score: 66.67; isolated: Not Isolated" role="graphics-symbol" aria-roledescription="tick" d="M199.51000000000002,22.5h1v15h-1Z" fill="grey" opacity="0.7"/><path aria-label="Summative Score: 76; isolated: Not Isolated" role="graphics-symbol" aria-roledescription="tick" d="M227.5,22.5h1v15h-1Z" fill="grey" opacity="0.7"/><path aria-label="Summative Score: 49.33; isolated: Isolated" role="graphics-symbol" aria-roledescription="tick" d="M147.48999999999998,2.5h1v15h-1Z" fill="grey" opacity="0.7"/><path aria-label="Summative Score: 100; isolated: Isolated" role="graphics-symbol" aria-roledescription="tick" d="M299.5,2.5h1v15h-1Z" fill="grey" opacity="0.7"/><path aria-label="Summative Score: 95.38; isolated: Isolated" role="graphics-symbol" aria-roledescription="tick" d="M285.64,2.5h1v15h-1Z" fill="grey" opacity="0.7"/><path aria-label="Summative Score: 86.92; isolated: Not Isolated" role="graphics-symbol" aria-roledescription="tick" d="M260.26,22.5h1v15h-1Z" fill="grey" opacity="0.7"/><path aria-label="Summative Score: 90; isolated: Not Isolated" role="graphics-symbol" aria-roledescription="tick" d="M269.5,22.5h1v15h-1Z" fill="grey" opacity="0.7"/><path aria-label="Summative Score: 49.29; isolated: Not Isolated" role="graphics-symbol" aria-roledescription="tick" d="M147.37,22.5h1v15h-1Z" fill="grey" opacity="0.7"/><path aria-label="Summative Score: 90; isolated: Not Isolated" role="graphics-symbol" aria-roledescription="tick" d="M269.5,22.5h1v15h-1Z" fill="grey" opacity="0.7"/><path aria-label="Summative Score: 33.85; isolated: Not Isolated" role="graphics-symbol" aria-roledescription="tick" d="M101.05000000000001,22.5h1v15h-1Z" fill="grey" opacity="0.7"/><path aria-label="Summative Score: 87.69; isolated: Not Isolated" role="graphics-symbol" aria-roledescription="tick" d="M262.57,22.5h1v15h-1Z" fill="grey" opacity="0.7"/><path aria-label="Summative Score: 55.38; isolated: Not Isolated" role="graphics-symbol" aria-roledescription="tick" d="M165.64000000000001,22.5h1v15h-1Z" fill="grey" opacity="0.7"/><path aria-label="Summative Score: 82.31; isolated: Not Isolated" role="graphics-symbol" aria-roledescription="tick" d="M246.43,22.5h1v15h-1Z" fill="grey" opacity="0.7"/><path aria-label="Summative Score: 66.92; isolated: Not Isolated" role="graphics-symbol" aria-roledescription="tick" d="M200.26,22.5h1v15h-1Z" fill="grey" opacity="0.7"/><path aria-label="Summative Score: 73.85; isolated: Not Isolated" role="graphics-symbol" aria-roledescription="tick" d="M221.04999999999998,22.5h1v15h-1Z" fill="grey" opacity="0.7"/><path aria-label="Summative Score: 66.15; isolated: Not Isolated" role="graphics-symbol" aria-roledescription="tick" d="M197.95000000000002,22.5h1v15h-1Z" fill="grey" opacity="0.7"/><path aria-label="Summative Score: 93.85; isolated: Isolated" role="graphics-symbol" aria-roledescription="tick" d="M281.04999999999995,2.5h1v15h-1Z" fill="grey" opacity="0.7"/><path aria-label="Summative Score: 98.46; isolated: Isolated" role="graphics-symbol" aria-roledescription="tick" d="M294.88,2.5h1v15h-1Z" fill="grey" opacity="0.7"/><path aria-label="Summative Score: 83.85; isolated: Not Isolated" role="graphics-symbol" aria-roledescription="tick" d="M251.04999999999998,22.5h1v15h-1Z" fill="grey" opacity="0.7"/><path aria-label="Summative Score: 71.54; isolated: Isolated" role="graphics-symbol" aria-roledescription="tick" d="M214.12,2.5h1v15h-1Z" fill="grey" opacity="0.7"/><path aria-label="Summative Score: 96.15; isolated: Not Isolated" role="graphics-symbol" aria-roledescription="tick" d="M287.95,22.5h1v15h-1Z" fill="grey" opacity="0.7"/><path aria-label="Summative Score: 82.31; isolated: Not Isolated" role="graphics-symbol" aria-roledescription="tick" d="M246.43,22.5h1v15h-1Z" fill="grey" opacity="0.7"/><path aria-label="Summative Score: 95.38; isolated: Not Isolated" role="graphics-symbol" aria-roledescription="tick" d="M285.64,22.5h1v15h-1Z" fill="grey" opacity="0.7"/><path aria-label="Summative Score: 86.15; isolated: Not Isolated" role="graphics-symbol" aria-roledescription="tick" d="M257.95,22.5h1v15h-1Z" fill="grey" opacity="0.7"/><path aria-label="Summative Score: 95.38; isolated: Not Isolated" role="graphics-symbol" aria-roledescription="tick" d="M285.64,22.5h1v15h-1Z" fill="grey" opacity="0.7"/><path aria-label="Summative Score: 93.85; isolated: Not Isolated" role="graphics-symbol" aria-roledescription="tick" d="M281.04999999999995,22.5h1v15h-1Z" fill="grey" opacity="0.7"/><path aria-label="Summative Score: 83.85; isolated: Not Isolated" role="graphics-symbol" aria-roledescription="tick" d="M251.04999999999998,22.5h1v15h-1Z" fill="grey" opacity="0.7"/><path aria-label="Summative Score: 78.46; isolated: Not Isolated" role="graphics-symbol" aria-roledescription="tick" d="M234.88,22.5h1v15h-1Z" fill="grey" opacity="0.7"/><path aria-label="Summative Score: 40.77; isolated: Not Isolated" role="graphics-symbol" aria-roledescription="tick" d="M121.81,22.5h1v15h-1Z" fill="grey" opacity="0.7"/><path aria-label="Summative Score: 60; isolated: Not Isolated" role="graphics-symbol" aria-roledescription="tick" d="M179.5,22.5h1v15h-1Z" fill="grey" opacity="0.7"/><path aria-label="Summative Score: 70.77; isolated: Not Isolated" role="graphics-symbol" aria-roledescription="tick" d="M211.81,22.5h1v15h-1Z" fill="grey" opacity="0.7"/><path aria-label="Summative Score: 95.1612903; isolated: Isolated" role="graphics-symbol" aria-roledescription="tick" d="M284.9838709,2.5h1v15h-1Z" fill="grey" opacity="0.7"/><path aria-label="Summative Score: 70.1612903; isolated: Isolated" role="graphics-symbol" aria-roledescription="tick" d="M209.9838709,2.5h1v15h-1Z" fill="grey" opacity="0.7"/><path aria-label="Summative Score: 92.7419355; isolated: Not Isolated" role="graphics-symbol" aria-roledescription="tick" d="M277.7258065,22.5h1v15h-1Z" fill="grey" opacity="0.7"/><path aria-label="Summative Score: 89.516129; isolated: Not Isolated" role="graphics-symbol" aria-roledescription="tick" d="M268.04838700000005,22.5h1v15h-1Z" fill="grey" opacity="0.7"/><path aria-label="Summative Score: 95.1612903; isolated: Not Isolated" role="graphics-symbol" aria-roledescription="tick" d="M284.9838709,22.5h1v15h-1Z" fill="grey" opacity="0.7"/><path aria-label="Summative Score: 66.9354839; isolated: Not Isolated" role="graphics-symbol" aria-roledescription="tick" d="M200.3064517,22.5h1v15h-1Z" fill="grey" opacity="0.7"/><path aria-label="Summative Score: 82.2580645; isolated: Not Isolated" role="graphics-symbol" aria-roledescription="tick" d="M246.27419350000002,22.5h1v15h-1Z" fill="grey" opacity="0.7"/><path aria-label="Summative Score: 88.3064516; isolated: Not Isolated" role="graphics-symbol" aria-roledescription="tick" d="M264.4193548,22.5h1v15h-1Z" fill="grey" opacity="0.7"/><path aria-label="Summative Score: 91.5322581; isolated: Not Isolated" role="graphics-symbol" aria-roledescription="tick" d="M274.0967743,22.5h1v15h-1Z" fill="grey" opacity="0.7"/><path aria-label="Summative Score: 67.7419355; isolated: Not Isolated" role="graphics-symbol" aria-roledescription="tick" d="M202.72580649999998,22.5h1v15h-1Z" fill="grey" opacity="0.7"/><path aria-label="Summative Score: 83.0645161; isolated: Not Isolated" role="graphics-symbol" aria-roledescription="tick" d="M248.6935483,22.5h1v15h-1Z" fill="grey" opacity="0.7"/><path aria-label="Summative Score: 27.4193548; isolated: Isolated" role="graphics-symbol" aria-roledescription="tick" d="M81.75806440000001,2.5h1v15h-1Z" fill="grey" opacity="0.7"/><path aria-label="Summative Score: 77.41935484; isolated: Not Isolated" role="graphics-symbol" aria-roledescription="tick" d="M231.75806452,22.5h1v15h-1Z" fill="grey" opacity="0.7"/><path aria-label="Summative Score: 54.8387097; isolated: Isolated" role="graphics-symbol" aria-roledescription="tick" d="M164.0161291,2.5h1v15h-1Z" fill="grey" opacity="0.7"/><path aria-label="Summative Score: 58.8709677; isolated: Not Isolated" role="graphics-symbol" aria-roledescription="tick" d="M176.11290309999998,22.5h1v15h-1Z" fill="grey" opacity="0.7"/><path aria-label="Summative Score: 62.0967742; isolated: Not Isolated" role="graphics-symbol" aria-roledescription="tick" d="M185.79032260000002,22.5h1v15h-1Z" fill="grey" opacity="0.7"/><path aria-label="Summative Score: 58.8709677; isolated: Not Isolated" role="graphics-symbol" aria-roledescription="tick" d="M176.11290309999998,22.5h1v15h-1Z" fill="grey" opacity="0.7"/><path aria-label="Summative Score: 71.7741935; isolated: Not Isolated" role="graphics-symbol" aria-roledescription="tick" d="M214.82258050000002,22.5h1v15h-1Z" fill="grey" opacity="0.7"/><path aria-label="Summative Score: 77.4193548; isolated: Not Isolated" role="graphics-symbol" aria-roledescription="tick" d="M231.7580644,22.5h1v15h-1Z" fill="grey" opacity="0.7"/><path aria-label="Summative Score: 89.516129; isolated: Not Isolated" role="graphics-symbol" aria-roledescription="tick" d="M268.04838700000005,22.5h1v15h-1Z" fill="grey" opacity="0.7"/><path aria-label="Summative Score: 95.1612903; isolated: Not Isolated" role="graphics-symbol" aria-roledescription="tick" d="M284.9838709,22.5h1v15h-1Z" fill="grey" opacity="0.7"/><path aria-label="Summative Score: 82.6612903; isolated: Not Isolated" role="graphics-symbol" aria-roledescription="tick" d="M247.4838709,22.5h1v15h-1Z" fill="grey" opacity="0.7"/><path aria-label="Summative Score: 51.6129032; isolated: Not Isolated" role="graphics-symbol" aria-roledescription="tick" d="M154.33870960000002,22.5h1v15h-1Z" fill="grey" opacity="0.7"/><path aria-label="Summative Score: 68.9516129; isolated: Not Isolated" role="graphics-symbol" aria-roledescription="tick" d="M206.35483870000002,22.5h1v15h-1Z" fill="grey" opacity="0.7"/><path aria-label="Summative Score: 54.0322581; isolated: Not Isolated" role="graphics-symbol" aria-roledescription="tick" d="M161.5967743,22.5h1v15h-1Z" fill="grey" opacity="0.7"/><path aria-label="Summative Score: 76.6129032; isolated: Isolated" role="graphics-symbol" aria-roledescription="tick" d="M229.33870960000002,2.5h1v15h-1Z" fill="grey" opacity="0.7"/><path aria-label="Summative Score: 0; isolated: Isolated" role="graphics-symbol" aria-roledescription="tick" d="M-0.5,2.5h1v15h-1Z" fill="grey" opacity="0.7"/><path aria-label="Summative Score: 90.3225806; isolated: Not Isolated" role="graphics-symbol" aria-roledescription="tick" d="M270.46774180000006,22.5h1v15h-1Z" fill="grey" opacity="0.7"/><path aria-label="Summative Score: 33.8709677; isolated: Isolated" role="graphics-symbol" aria-roledescription="tick" d="M101.1129031,2.5h1v15h-1Z" fill="grey" opacity="0.7"/><path aria-label="Summative Score: 75.8064516; isolated: Not Isolated" role="graphics-symbol" aria-roledescription="tick" d="M226.9193548,22.5h1v15h-1Z" fill="grey" opacity="0.7"/><path aria-label="Summative Score: 46.7741935; isolated: Not Isolated" role="graphics-symbol" aria-roledescription="tick" d="M139.82258050000002,22.5h1v15h-1Z" fill="grey" opacity="0.7"/><path aria-label="Summative Score: 70.9677419; isolated: Not Isolated" role="graphics-symbol" aria-roledescription="tick" d="M212.4032257,22.5h1v15h-1Z" fill="grey" opacity="0.7"/><path aria-label="Summative Score: 75.8064516; isolated: Not Isolated" role="graphics-symbol" aria-roledescription="tick" d="M226.9193548,22.5h1v15h-1Z" fill="grey" opacity="0.7"/><path aria-label="Summative Score: 62.5; isolated: Isolated" role="graphics-symbol" aria-roledescription="tick" d="M187,2.5h1v15h-1Z" fill="grey" opacity="0.7"/><path aria-label="Summative Score: 93.5606061; isolated: Not Isolated" role="graphics-symbol" aria-roledescription="tick" d="M280.1818183,22.5h1v15h-1Z" fill="grey" opacity="0.7"/><path aria-label="Summative Score: 78.7878788; isolated: Not Isolated" role="graphics-symbol" aria-roledescription="tick" d="M235.8636364,22.5h1v15h-1Z" fill="grey" opacity="0.7"/><path aria-label="Summative Score: 74.1060606; isolated: Isolated" role="graphics-symbol" aria-roledescription="tick" d="M221.8181818,2.5h1v15h-1Z" fill="grey" opacity="0.7"/><path aria-label="Summative Score: 81.1969697; isolated: Not Isolated" role="graphics-symbol" aria-roledescription="tick" d="M243.0909091,22.5h1v15h-1Z" fill="grey" opacity="0.7"/><path aria-label="Summative Score: 79.3030303; isolated: Isolated" role="graphics-symbol" aria-roledescription="tick" d="M237.4090909,2.5h1v15h-1Z" fill="grey" opacity="0.7"/><path aria-label="Summative Score: 90.7878788; isolated: Not Isolated" role="graphics-symbol" aria-roledescription="tick" d="M271.8636364,22.5h1v15h-1Z" fill="grey" opacity="0.7"/><path aria-label="Summative Score: 83.0909091; isolated: Not Isolated" role="graphics-symbol" aria-roledescription="tick" d="M248.77272730000004,22.5h1v15h-1Z" fill="grey" opacity="0.7"/><path aria-label="Summative Score: 94.3181818; isolated: Isolated" role="graphics-symbol" aria-roledescription="tick" d="M282.45454540000003,2.5h1v15h-1Z" fill="grey" opacity="0.7"/><path aria-label="Summative Score: 73.8484848; isolated: Not Isolated" role="graphics-symbol" aria-roledescription="tick" d="M221.04545440000004,22.5h1v15h-1Z" fill="grey" opacity="0.7"/><path aria-label="Summative Score: 82.5151515; isolated: Isolated" role="graphics-symbol" aria-roledescription="tick" d="M247.0454545,2.5h1v15h-1Z" fill="grey" opacity="0.7"/><path aria-label="Summative Score: 68.15151515; isolated: Not Isolated" role="graphics-symbol" aria-roledescription="tick" d="M203.95454544999998,22.5h1v15h-1Z" fill="grey" opacity="0.7"/><path aria-label="Summative Score: 61.469697; isolated: Not Isolated" role="graphics-symbol" aria-roledescription="tick" d="M183.909091,22.5h1v15h-1Z" fill="grey" opacity="0.7"/><path aria-label="Summative Score: 42.0151515; isolated: Not Isolated" role="graphics-symbol" aria-roledescription="tick" d="M125.54545449999998,22.5h1v15h-1Z" fill="grey" opacity="0.7"/><path aria-label="Summative Score: 62.7727273; isolated: Not Isolated" role="graphics-symbol" aria-roledescription="tick" d="M187.81818189999998,22.5h1v15h-1Z" fill="grey" opacity="0.7"/><path aria-label="Summative Score: 44.6666667; isolated: Isolated" role="graphics-symbol" aria-roledescription="tick" d="M133.5000001,2.5h1v15h-1Z" fill="grey" opacity="0.7"/><path aria-label="Summative Score: 66.8636364; isolated: Isolated" role="graphics-symbol" aria-roledescription="tick" d="M200.0909092,2.5h1v15h-1Z" fill="grey" opacity="0.7"/><path aria-label="Summative Score: 83.5757576; isolated: Isolated" role="graphics-symbol" aria-roledescription="tick" d="M250.2272728,2.5h1v15h-1Z" fill="grey" opacity="0.7"/><path aria-label="Summative Score: 41.1363636; isolated: Isolated" role="graphics-symbol" aria-roledescription="tick" d="M122.90909079999999,2.5h1v15h-1Z" fill="grey" opacity="0.7"/><path aria-label="Summative Score: 71.3333333; isolated: Not Isolated" role="graphics-symbol" aria-roledescription="tick" d="M213.4999999,22.5h1v15h-1Z" fill="grey" opacity="0.7"/><path aria-label="Summative Score: 72.8636364; isolated: Not Isolated" role="graphics-symbol" aria-roledescription="tick" d="M218.09090920000003,22.5h1v15h-1Z" fill="grey" opacity="0.7"/><path aria-label="Summative Score: 70.9545455; isolated: Isolated" role="graphics-symbol" aria-roledescription="tick" d="M212.36363649999998,2.5h1v15h-1Z" fill="grey" opacity="0.7"/><path aria-label="Summative Score: 55.8030303; isolated: Isolated" role="graphics-symbol" aria-roledescription="tick" d="M166.9090909,2.5h1v15h-1Z" fill="grey" opacity="0.7"/><path aria-label="Summative Score: 55.9393939; isolated: Not Isolated" role="graphics-symbol" aria-roledescription="tick" d="M167.3181817,22.5h1v15h-1Z" fill="grey" opacity="0.7"/><path aria-label="Summative Score: 93.33; isolated: Isolated" role="graphics-symbol" aria-roledescription="tick" d="M279.49,2.5h1v15h-1Z" fill="grey" opacity="0.7"/><path aria-label="Summative Score: 45.57; isolated: Not Isolated" role="graphics-symbol" aria-roledescription="tick" d="M136.21,22.5h1v15h-1Z" fill="grey" opacity="0.7"/><path aria-label="Summative Score: 60.57; isolated: Not Isolated" role="graphics-symbol" aria-roledescription="tick" d="M181.21,22.5h1v15h-1Z" fill="grey" opacity="0.7"/><path aria-label="Summative Score: 90.57; isolated: Not Isolated" role="graphics-symbol" aria-roledescription="tick" d="M271.21,22.5h1v15h-1Z" fill="grey" opacity="0.7"/><path aria-label="Summative Score: 61.67; isolated: Not Isolated" role="graphics-symbol" aria-roledescription="tick" d="M184.51000000000002,22.5h1v15h-1Z" fill="grey" opacity="0.7"/><path aria-label="Summative Score: 86.67; isolated: Isolated" role="graphics-symbol" aria-roledescription="tick" d="M259.51,2.5h1v15h-1Z" fill="grey" opacity="0.7"/><path aria-label="Summative Score: 0; isolated: Isolated" role="graphics-symbol" aria-roledescription="tick" d="M-0.5,2.5h1v15h-1Z" fill="grey" opacity="0.7"/><path aria-label="Summative Score: 91.67; isolated: Not Isolated" role="graphics-symbol" aria-roledescription="tick" d="M274.51000000000005,22.5h1v15h-1Z" fill="grey" opacity="0.7"/><path aria-label="Summative Score: 88.33; isolated: Not Isolated" role="graphics-symbol" aria-roledescription="tick" d="M264.49,22.5h1v15h-1Z" fill="grey" opacity="0.7"/><path aria-label="Summative Score: 90; isolated: Not Isolated" role="graphics-symbol" aria-roledescription="tick" d="M269.5,22.5h1v15h-1Z" fill="grey" opacity="0.7"/><path aria-label="Summative Score: 68.07; isolated: Not Isolated" role="graphics-symbol" aria-roledescription="tick" d="M203.70999999999998,22.5h1v15h-1Z" fill="grey" opacity="0.7"/><path aria-label="Summative Score: 86.67; isolated: Not Isolated" role="graphics-symbol" aria-roledescription="tick" d="M259.51,22.5h1v15h-1Z" fill="grey" opacity="0.7"/><path aria-label="Summative Score: 95; isolated: Not Isolated" role="graphics-symbol" aria-roledescription="tick" d="M284.5,22.5h1v15h-1Z" fill="grey" opacity="0.7"/><path aria-label="Summative Score: 75; isolated: Not Isolated" role="graphics-symbol" aria-roledescription="tick" d="M224.5,22.5h1v15h-1Z" fill="grey" opacity="0.7"/><path aria-label="Summative Score: 93.33; isolated: Not Isolated" role="graphics-symbol" aria-roledescription="tick" d="M279.49,22.5h1v15h-1Z" fill="grey" opacity="0.7"/><path aria-label="Summative Score: 86.67; isolated: Not Isolated" role="graphics-symbol" aria-roledescription="tick" d="M259.51,22.5h1v15h-1Z" fill="grey" opacity="0.7"/><path aria-label="Summative Score: 70; isolated: Isolated" role="graphics-symbol" aria-roledescription="tick" d="M209.5,2.5h1v15h-1Z" fill="grey" opacity="0.7"/><path aria-label="Summative Score: 36.67; isolated: Isolated" role="graphics-symbol" aria-roledescription="tick" d="M109.51,2.5h1v15h-1Z" fill="grey" opacity="0.7"/><path aria-label="Summative Score: 23.33; isolated: Isolated" role="graphics-symbol" aria-roledescription="tick" d="M69.49,2.5h1v15h-1Z" fill="grey" opacity="0.7"/><path aria-label="Summative Score: 93.33; isolated: Isolated" role="graphics-symbol" aria-roledescription="tick" d="M279.49,2.5h1v15h-1Z" fill="grey" opacity="0.7"/><path aria-label="Summative Score: 71.13; isolated: Isolated" role="graphics-symbol" aria-roledescription="tick" d="M212.89,2.5h1v15h-1Z" fill="grey" opacity="0.7"/><path aria-label="Summative Score: 83.33; isolated: Not Isolated" role="graphics-symbol" aria-roledescription="tick" d="M249.48999999999998,22.5h1v15h-1Z" fill="grey" opacity="0.7"/><path aria-label="Summative Score: 91.67; isolated: Not Isolated" role="graphics-symbol" aria-roledescription="tick" d="M274.51000000000005,22.5h1v15h-1Z" fill="grey" opacity="0.7"/><path aria-label="Summative Score: 93.33; isolated: Isolated" role="graphics-symbol" aria-roledescription="tick" d="M279.49,2.5h1v15h-1Z" fill="grey" opacity="0.7"/><path aria-label="Summative Score: 75; isolated: Isolated" role="graphics-symbol" aria-roledescription="tick" d="M224.5,2.5h1v15h-1Z" fill="grey" opacity="0.7"/></g><g class="mark-symbol role-mark layer_1_marks" role="graphics-object" aria-roledescription="symbol mark container"><path aria-label="Summative Score: 79.4933957587; Isolated: Not Isolated" role="graphics-symbol" aria-roledescription="circle" transform="translate(238.4801872762185,30)" d="M3.536,0A3.536,3.536,0,1,1,-3.536,0A3.536,3.536,0,1,1,3.536,0" fill="firebrick" stroke-width="2"/><path aria-label="Summative Score: 69.13950684; Isolated: Isolated" role="graphics-symbol" aria-roledescription="circle" transform="translate(207.41852052000002,10)" d="M3.536,0A3.536,3.536,0,1,1,-3.536,0A3.536,3.536,0,1,1,3.536,0" fill="firebrick" stroke-width="2"/></g><g class="mark-rule role-mark layer_2_marks" role="graphics-object" aria-roledescription="rule mark container"><line aria-label="Summative Score: 76.6568123157; Isolated: Not Isolated; upper_grade: 82.3738825661; Ci1 of grade: 82.3738825661; Ci0 of grade: 76.6568123157; Mean of grade: 79.4933957587" role="graphics-symbol" aria-roledescription="errorbar" transform="translate(229.9704369469727,30)" x2="17.151210751216354" y2="0" stroke="firebrick" stroke-width="2"/><line aria-label="Summative Score: 60.8972123391; Isolated: Isolated; upper_grade: 76.7038642295; Ci1 of grade: 76.7038642295; Ci0 of grade: 60.8972123391; Mean of grade: 69.13950684" role="graphics-symbol" aria-roledescription="errorbar" transform="translate(182.69163701718747,10)" x2="47.41995567131252" y2="0" stroke="firebrick" stroke-width="2"/></g></g><path class="foreground" aria-hidden="true" d="" display="none"/></g></g></g></svg>
