<svg id="course" viewBox="0,0,300,300" xmlns="http://www.w3.org/2000/svg" width="300" height="300" style="border: 0.5pt dashed grey;">
<g stroke="darkgrey" stroke-width="1.5" class="edge"><line x1="136.13353289222766" y1="224.44446821911322" x2="112.82270113289596" y2="244.9865216385239"><title></title></line><line x1="105.34982957844068" y1="212.4200951240582" x2="136.13353289222766" y2="224.44446821911322"><title></title></line><line x1="189.6764654675961" y1="47.02193068992367" x2="164.186422095703" y2="29.44628743530142"><title></title></line><line x1="164.186422095703" y1="29.44628743530142" x2="132.7759667970887" y2="27.000189638137176"><title></title></line><line x1="195.30311143916688" y1="162.2231995400742" x2="192.9176191447698" y2="196.63656056011317"><title></title></line><line x1="42.288003057292286" y1="99.43684946702977" x2="49.359873136357635" y2="128.71118566964253"><title></title></line><line x1="75.21218760650915" y1="104.08073449725329" x2="49.359873136357635" y2="128.71118566964253"><title></title></line><line x1="206.93012639846933" y1="101.17399595141534" x2="180.55507793494212" y2="116.6869900778075"><title></title></line><line x1="223.98891214538673" y1="184.2605240006519" x2="212.62905999557606" y2="220.1290911141253"><title></title></line><line x1="212.62905999557606" y1="220.1290911141253" x2="192.9176191447698" y2="196.63656056011317"><title></title></line><line x1="189.5549778868729" y1="246.6080775150999" x2="212.62905999557606" y2="220.1290911141253"><title></title></line><line x1="212.62905999557606" y1="220.1290911141253" x2="221.11859465522855" y2="252.1786213574205"><title></title></line><line x1="146.03085757186577" y1="80.40342451717538" x2="122.36716646491986" y2="58.082441352456684"><title></title></line><line x1="122.36716646491986" y1="58.082441352456684" x2="106.32118849576604" y2="83.96973138581275"><title></title></line><line x1="105.34982957844068" y1="212.4200951240582" x2="112.82270113289596" y2="244.9865216385239"><title></title></line><line x1="224.59298473123278" y1="59.725676529669364" x2="244.70055289828062" y2="83.46818007982431"><title></title></line><line x1="159.63030644380964" y1="151.97164639493613" x2="133.48813763335204" y2="173.15271126741362"><title></title></line><line x1="159.63030644380964" y1="151.97164639493613" x2="127.78188180862493" y2="145.88011987195608"><title></title></line><line x1="159.63030644380964" y1="151.97164639493613" x2="195.30311143916688" y2="162.2231995400742"><title></title></line><line x1="192.9176191447698" y1="196.63656056011317" x2="166.91241808875318" y2="182.9458641169288"><title></title></line><line x1="195.30311143916688" y1="162.2231995400742" x2="166.91241808875318" y2="182.9458641169288"><title></title></line><line x1="75.21218760650915" y1="104.08073449725329" x2="42.288003057292286" y2="99.43684946702977"><title></title></line><line x1="189.5549778868729" y1="246.6080775150999" x2="221.11859465522855" y2="252.1786213574205"><title></title></line><line x1="37.76859688916609" y1="198.72517923897414" x2="64.49348033063849" y2="213.70629009502292"><title></title></line><line x1="75.21218760650915" y1="104.08073449725329" x2="82.3286212184502" y2="135.2365166211392"><title></title></line><line x1="146.03085757186577" y1="80.40342451717538" x2="106.32118849576604" y2="83.96973138581275"><title></title></line><line x1="75.21218760650915" y1="104.08073449725329" x2="106.32118849576604" y2="83.96973138581275"><title></title></line><line x1="124.9878445416071" y1="108.74018985991191" x2="106.32118849576604" y2="83.96973138581275"><title></title></line><line x1="146.03085757186577" y1="80.40342451717538" x2="146.03085757186577" y2="80.40342451717538"><title></title></line><line x1="223.98891214538673" y1="184.2605240006519" x2="192.9176191447698" y2="196.63656056011317"><title></title></line><line x1="221.11859465522855" y1="252.1786213574205" x2="245.423140385825" y2="230.64994999114225"><title></title></line><line x1="223.98891214538673" y1="184.2605240006519" x2="195.30311143916688" y2="162.2231995400742"><title></title></line></g><g stroke-width="1.5"><circle stroke="#1f77b4" r="5" fill="#1f77b4" class="gender-m" cx="236.33679451438843" cy="133.80807426649915"></circle><circle stroke="#1f77b4" r="5" fill="#1f77b4" class="gender-m" cx="51.254999204143836" cy="167.9127074682485"></circle><circle stroke="#1f77b4" r="5" fill="#1f77b4" class="gender-m" cx="124.9878445416071" cy="108.74018985991191"></circle><circle stroke="#ff7f0e" r="5" fill="white" class="gender-wnb" cx="189.6764654675961" cy="47.02193068992367"></circle><circle stroke="#ff7f0e" r="5" fill="white" class="gender-wnb" cx="159.63030644380964" cy="151.97164639493613"></circle><circle stroke="#1f77b4" r="5" fill="#1f77b4" class="gender-m" cx="146.03085757186577" cy="80.40342451717538"></circle><circle stroke="#1f77b4" r="5" fill="#1f77b4" class="gender-m" cx="206.93012639846933" cy="101.17399595141534"></circle><circle stroke="#1f77b4" r="5" fill="#1f77b4" class="gender-m" cx="105.34982957844068" cy="212.4200951240582"></circle><circle stroke="#1f77b4" r="5" fill="#1f77b4" class="gender-m" cx="136.13353289222766" cy="224.44446821911322"></circle><circle stroke="#1f77b4" r="5" fill="#1f77b4" class="gender-m" cx="75.21218760650915" cy="104.08073449725329"></circle><circle stroke="#1f77b4" r="5" fill="#1f77b4" class="gender-m" cx="223.98891214538673" cy="184.2605240006519"></circle><circle stroke="#ff7f0e" r="5" fill="white" class="gender-wnb" cx="189.5549778868729" cy="246.6080775150999"></circle><circle stroke="#1f77b4" r="5" fill="#1f77b4" class="gender-m" cx="64.12673317015096" cy="60.24943331702203"></circle><circle stroke="#1f77b4" r="5" fill="#1f77b4" class="gender-m" cx="195.30311143916688" cy="162.2231995400742"></circle><circle stroke="#1f77b4" r="5" fill="#1f77b4" class="gender-m" cx="79.93405845631212" cy="252.53076436542074"></circle><circle stroke="#1f77b4" r="5" fill="#1f77b4" class="gender-m" cx="180.55507793494212" cy="116.6869900778075"></circle><circle stroke="#ff7f0e" r="5" fill="white" class="gender-wnb" cx="212.62905999557606" cy="220.1290911141253"></circle><circle stroke="#ff7f0e" r="5" fill="white" class="gender-wnb" cx="37.76859688916609" cy="198.72517923897414"></circle><circle stroke="#1f77b4" r="5" fill="#1f77b4" class="gender-m" cx="122.36716646491986" cy="58.082441352456684"></circle><circle stroke="#1f77b4" r="5" fill="#1f77b4" class="gender-m" cx="192.9176191447698" cy="196.63656056011317"></circle><circle stroke="#1f77b4" r="5" fill="#1f77b4" class="gender-m" cx="106.32118849576604" cy="83.96973138581275"></circle><circle stroke="#ff7f0e" r="5" fill="white" class="gender-wnb" cx="166.91241808875318" cy="182.9458641169288"></circle><circle stroke="#1f77b4" r="5" fill="#1f77b4" class="gender-m" cx="112.82270113289596" cy="244.9865216385239"></circle><circle stroke="#ff7f0e" r="5" fill="white" class="gender-wnb" cx="164.186422095703" cy="29.44628743530142"></circle><circle stroke="#ff7f0e" r="5" fill="white" class="gender-wnb" cx="221.11859465522855" cy="252.1786213574205"></circle><circle stroke="#1f77b4" r="5" fill="#1f77b4" class="gender-m" cx="42.288003057292286" cy="99.43684946702977"></circle><circle stroke="#1f77b4" r="5" fill="#1f77b4" class="gender-m" cx="269.5285425200889" cy="118.07889215127913"></circle><circle stroke="#1f77b4" r="5" fill="#1f77b4" class="gender-m" cx="146.34435147818195" cy="271.75415447191733"></circle><circle stroke="#ff7f0e" r="5" fill="white" class="gender-wnb" cx="224.59298473123278" cy="59.725676529669364"></circle><circle stroke="#1f77b4" r="5" fill="#1f77b4" class="gender-m" cx="267.27715578342963" cy="166.49241632002995"></circle><circle stroke="#1f77b4" r="5" fill="#1f77b4" class="gender-m" cx="49.359873136357635" cy="128.71118566964253"></circle><circle stroke="#ff7f0e" r="5" fill="white" class="gender-wnb" cx="245.423140385825" cy="230.64994999114225"></circle><circle stroke="#ff7f0e" r="5" fill="white" class="gender-wnb" cx="64.49348033063849" cy="213.70629009502292"></circle><circle stroke="#1f77b4" r="5" fill="#1f77b4" class="gender-m" cx="132.7759667970887" cy="27.000189638137176"></circle></g><g><rect width="10" height="10" fill="black" class="anonymous" x="239.70055289828062" y="78.46818007982431"></rect><rect width="10" height="10" fill="black" class="anonymous" x="128.48813763335204" y="168.15271126741362"></rect><rect width="10" height="10" fill="black" class="anonymous" x="122.78188180862493" y="140.88011987195608"></rect><rect width="10" height="10" fill="black" class="anonymous" x="77.3286212184502" y="130.2365166211392"></rect></g></svg>
