<svg id="course" viewBox="0,0,300,300" xmlns="http://www.w3.org/2000/svg" width="300" height="300" style="border: 0.5pt dashed grey;">
<g stroke="darkgrey" stroke-width="1.5" class="edge"><line x1="184.32022635180698" y1="42.380333795224516" x2="195.95664886621032" y2="71.4796440443848"><title></title></line><line x1="152.91809420847315" y1="153.27093947749523" x2="180.67279887428973" y2="141.49839270537137"><title></title></line><line x1="34.71148276307604" y1="143.1282298295483" x2="35.592816788767145" y2="175.02346274361594"><title></title></line><line x1="65.06839791510991" y1="106.58549028234754" x2="64.29104605406157" y2="75.23344700278737"><title></title></line><line x1="161.14374098081092" y1="261.05921959804755" x2="191.11570926028472" y2="251.8385494920675"><title></title></line><line x1="88.82717639374376" y1="188.31344438812792" x2="68.55344909894139" y2="165.5749942989649"><title></title></line><line x1="212.7952339651502" y1="99.73617985913262" x2="195.95664886621032" y2="71.4796440443848"><title></title></line><line x1="92.1031096779907" y1="221.86646427184544" x2="114.20470093209077" y2="244.38096684576297"><title></title></line><line x1="171.81041053062373" y1="212.90990206936027" x2="141.17318569477035" y2="215.86543910409432"><title></title></line><line x1="156.9009197803148" y1="93.85312538166215" x2="146.8341879209357" y2="63.55716973260647"><title></title></line><line x1="246.17380646232849" y1="105.62179783498321" x2="234.91819143564902" y2="75.67965403203928"><title></title></line><line x1="212.7952339651502" y1="99.73617985913262" x2="246.17380646232849" y2="105.62179783498321"><title></title></line><line x1="105.33006955025351" y1="74.4354820818432" x2="119.08624578040535" y2="102.6679026296575"><title></title></line><line x1="133.61295006799952" y1="183.2367385692168" x2="141.17318569477035" y2="215.86543910409432"><title></title></line><line x1="120.18058441364843" y1="151.25688065635455" x2="152.91809420847315" y2="153.27093947749523"><title></title></line><line x1="120.18058441364843" y1="151.25688065635455" x2="133.61295006799952" y2="183.2367385692168"><title></title></line><line x1="120.18058441364843" y1="151.25688065635455" x2="90.71208690073101" y2="130.62783510558052"><title></title></line><line x1="248.75071994429686" y1="152.7492932957237" x2="229.39325138512942" y2="177.62073941990417"><title></title></line><line x1="65.06839791510991" y1="106.58549028234754" x2="90.71208690073101" y2="130.62783510558052"><title></title></line><line x1="212.7952339651502" y1="99.73617985913262" x2="213.14179962578618" y2="130.99807121388713"><title></title></line><line x1="212.7952339651502" y1="99.73617985913262" x2="234.91819143564902" y2="75.67965403203928"><title></title></line></g><g stroke-width="1.5"><circle stroke="#1f77b4" r="5" fill="#1f77b4" class="gender-m" cx="200.95135002400895" cy="197.26402751823926"></circle><circle stroke="#ff7f0e" r="5" fill="white" class="gender-wnb" cx="120.18058441364843" cy="151.25688065635455"></circle><circle stroke="#1f77b4" r="5" fill="#1f77b4" class="gender-m" cx="105.33006955025351" cy="74.4354820818432"></circle><circle stroke="#1f77b4" r="5" fill="#1f77b4" class="gender-m" cx="212.7952339651502" cy="99.73617985913262"></circle><circle stroke="#1f77b4" r="5" fill="#1f77b4" class="gender-m" cx="65.06839791510991" cy="106.58549028234754"></circle><circle stroke="#1f77b4" r="5" fill="#1f77b4" class="gender-m" cx="246.17380646232849" cy="105.62179783498321"></circle><circle stroke="#1f77b4" r="5" fill="#1f77b4" class="gender-m" cx="34.71148276307604" cy="143.1282298295483"></circle><circle stroke="#1f77b4" r="5" fill="#1f77b4" class="gender-m" cx="118.49164198235572" cy="35.89486845040586"></circle><circle stroke="#ff7f0e" r="5" fill="white" class="gender-wnb" cx="229.39325138512942" cy="177.62073941990417"></circle><circle stroke="#1f77b4" r="5" fill="#1f77b4" class="gender-m" cx="119.08624578040535" cy="102.6679026296575"></circle><circle stroke="#1f77b4" r="5" fill="#1f77b4" class="gender-m" cx="234.91819143564902" cy="75.67965403203928"></circle><circle stroke="#1f77b4" r="5" fill="#1f77b4" class="gender-m" cx="133.61295006799952" cy="183.2367385692168"></circle><circle stroke="#1f77b4" r="5" fill="#1f77b4" class="gender-m" cx="213.14179962578618" cy="130.99807121388713"></circle><circle stroke="#1f77b4" r="5" fill="#1f77b4" class="gender-m" cx="264.87901138229387" cy="185.3973284343633"></circle><circle stroke="#1f77b4" r="5" fill="#1f77b4" class="gender-m" cx="73.3284870109932" cy="247.22381357028786"></circle><circle stroke="#1f77b4" r="5" fill="#1f77b4" class="gender-m" cx="152.91809420847315" cy="153.27093947749523"></circle><circle stroke="#1f77b4" r="5" fill="#1f77b4" class="gender-m" cx="230.69223742356434" cy="228.15029206706748"></circle><circle stroke="#ff7f0e" r="5" fill="white" class="gender-wnb" cx="90.71208690073101" cy="130.62783510558052"></circle><circle stroke="#1f77b4" r="5" fill="#1f77b4" class="gender-m" cx="171.81041053062373" cy="212.90990206936027"></circle><circle stroke="#1f77b4" r="5" fill="#1f77b4" class="gender-m" cx="161.14374098081092" cy="261.05921959804755"></circle><circle stroke="#1f77b4" r="5" fill="#1f77b4" class="gender-m" cx="92.1031096779907" cy="221.86646427184544"></circle><circle stroke="#1f77b4" r="5" fill="#1f77b4" class="gender-m" cx="156.9009197803148" cy="93.85312538166215"></circle><circle stroke="#1f77b4" r="5" fill="#1f77b4" class="gender-m" cx="141.17318569477035" cy="215.86543910409432"></circle><circle stroke="#1f77b4" r="5" fill="#1f77b4" class="gender-m" cx="195.95664886621032" cy="71.4796440443848"></circle><circle stroke="#ff7f0e" r="5" fill="white" class="gender-wnb" cx="88.82717639374376" cy="188.31344438812792"></circle><circle stroke="#1f77b4" r="5" fill="#1f77b4" class="gender-m" cx="146.8341879209357" cy="63.55716973260647"></circle><circle stroke="#ff7f0e" r="5" fill="white" class="gender-wnb" cx="248.75071994429686" cy="152.7492932957237"></circle><circle stroke="#1f77b4" r="5" fill="#1f77b4" class="gender-m" cx="114.20470093209077" cy="244.38096684576297"></circle></g><g><rect width="10" height="10" fill="black" class="anonymous" x="179.32022635180698" y="37.380333795224516"></rect><rect width="10" height="10" fill="black" class="anonymous" x="175.67279887428973" y="136.49839270537137"></rect><rect width="10" height="10" fill="black" class="anonymous" x="30.592816788767145" y="170.02346274361594"></rect><rect width="10" height="10" fill="black" class="anonymous" x="59.29104605406157" y="70.23344700278737"></rect><rect width="10" height="10" fill="black" class="anonymous" x="186.11570926028472" y="246.8385494920675"></rect><rect width="10" height="10" fill="black" class="anonymous" x="63.553449098941385" y="160.5749942989649"></rect></g></svg>
