<svg id="course" viewBox="0,0,300,300" xmlns="http://www.w3.org/2000/svg" width="300" height="300" style="border: 0.5pt dashed grey;">
<g stroke="darkgrey" stroke-width="1.5" class="edge"><line x1="235.4044268139101" y1="196.39238437261938" x2="205.6861777219709" y2="203.19409423802455"><title></title></line><line x1="127.68283498257038" y1="157.99693317149465" x2="97.78752399839287" y2="149.36264251576745"><title></title></line><line x1="103.66258661968833" y1="114.01234058522198" x2="97.78752399839287" y2="149.36264251576745"><title></title></line><line x1="103.66258661968833" y1="114.01234058522198" x2="133.72188553940094" y2="123.66903064489289"><title></title></line><line x1="163.9070306801372" y1="131.8661978532124" x2="133.72188553940094" y2="123.66903064489289"><title></title></line><line x1="127.68283498257038" y1="157.99693317149465" x2="133.72188553940094" y2="123.66903064489289"><title></title></line><line x1="73.74682233013037" y1="135.02240174236275" x2="44.11394487116826" y2="137.0796538912484"><title></title></line><line x1="172.3457831482633" y1="96.33393731679118" x2="146.71957035886223" y2="78.2410267870019"><title></title></line><line x1="121.35754568699159" y1="209.4357546412123" x2="123.155379680689" y2="240.91622732145402"><title></title></line><line x1="44.11394487116826" y1="137.0796538912484" x2="56.26037621780621" y2="106.21003642828542"><title></title></line><line x1="213.97509603674266" y1="106.57493559043127" x2="243.17459864653182" y2="116.02254004817392"><title></title></line></g><g stroke-width="1.5"><circle stroke="#ff7f0e" r="5" fill="white" class="gender-wnb" cx="173.31786328439213" cy="168.51887036519545"></circle><circle stroke="#1f77b4" r="5" fill="#1f77b4" class="gender-m" cx="121.35754568699159" cy="209.4357546412123"></circle><circle stroke="#1f77b4" r="5" fill="#1f77b4" class="gender-m" cx="213.97509603674266" cy="106.57493559043127"></circle><circle stroke="#1f77b4" r="5" fill="#1f77b4" class="gender-m" cx="160.81826481807505" cy="240.45578943719187"></circle><circle stroke="#ff7f0e" r="5" fill="white" class="gender-wnb" cx="163.9070306801372" cy="131.8661978532124"></circle><circle stroke="#1f77b4" r="5" fill="#1f77b4" class="gender-m" cx="210.1606549315186" cy="150.6760820638365"></circle><circle stroke="#ff7f0e" r="5" fill="white" class="gender-wnb" cx="127.68283498257038" cy="157.99693317149465"></circle><circle stroke="#ff7f0e" r="5" fill="white" class="gender-wnb" cx="133.72188553940094" cy="123.66903064489289"></circle><circle stroke="#ff7f0e" r="5" fill="white" class="gender-wnb" cx="161.98008914134462" cy="200.43924871795127"></circle><circle stroke="#ff7f0e" r="5" fill="white" class="gender-wnb" cx="97.78752399839287" cy="149.36264251576745"></circle><circle stroke="#1f77b4" r="5" fill="#1f77b4" class="gender-m" cx="164.2102467279322" cy="47.93604857176217"></circle><circle stroke="#1f77b4" r="5" fill="#1f77b4" class="gender-m" cx="73.74682233013037" cy="135.02240174236275"></circle><circle stroke="#ff7f0e" r="5" fill="white" class="gender-wnb" cx="44.11394487116826" cy="137.0796538912484"></circle><circle stroke="#1f77b4" r="5" fill="#1f77b4" class="gender-m" cx="235.4044268139101" cy="196.39238437261938"></circle><circle stroke="#1f77b4" r="5" fill="#1f77b4" class="gender-m" cx="172.3457831482633" cy="96.33393731679118"></circle><circle stroke="#1f77b4" r="5" fill="#1f77b4" class="gender-m" cx="108.51703492117545" cy="62.52328595731425"></circle><circle stroke="#ff7f0e" r="5" fill="white" class="gender-wnb" cx="198.16286220774344" cy="240.21161857459742"></circle><circle stroke="#1f77b4" r="5" fill="#1f77b4" class="gender-m" cx="66.683356542665" cy="191.89264603293708"></circle><circle stroke="#1f77b4" r="5" fill="#1f77b4" class="gender-m" cx="210.90525315892626" cy="68.17264265967586"></circle><circle stroke="#1f77b4" r="5" fill="#1f77b4" class="gender-m" cx="123.155379680689" cy="240.91622732145402"></circle><circle stroke="#ff7f0e" r="5" fill="white" class="gender-wnb" cx="103.66258661968833" cy="114.01234058522198"></circle><circle stroke="#1f77b4" r="5" fill="#1f77b4" class="gender-m" cx="250.14357983491112" cy="159.27754212831374"></circle><circle stroke="#ff7f0e" r="5" fill="white" class="gender-wnb" cx="85.88869908289587" cy="222.00764344141768"></circle><circle stroke="#1f77b4" r="5" fill="#1f77b4" class="gender-m" cx="146.71957035886223" cy="78.2410267870019"></circle></g><g><rect width="10" height="10" fill="black" class="anonymous" x="200.6861777219709" y="198.19409423802455"></rect><rect width="10" height="10" fill="black" class="anonymous" x="51.26037621780621" y="101.21003642828542"></rect><rect width="10" height="10" fill="black" class="anonymous" x="238.17459864653182" y="111.02254004817392"></rect></g></svg>
