<svg id="course" viewBox="0,0,300,300" xmlns="http://www.w3.org/2000/svg" width="300" height="300" style="border: 0.5pt dashed grey;">
<g stroke="darkgrey" stroke-width="1.5" class="edge"><line x1="145.5920328288045" y1="57.69141316865388" x2="113.91830726516221" y2="55.00408898621821"><title></title></line><line x1="204.77312472075823" y1="191.53386127339522" x2="204.70213943551894" y2="222.87289177855652"><title></title></line><line x1="166.46859728511103" y1="129.7577754045961" x2="144.36808543842182" y2="156.7108481197077"><title></title></line><line x1="166.46859728511103" y1="129.7577754045961" x2="133.71945879316334" y2="126.02437019731552"><title></title></line><line x1="144.36808543842182" y1="156.7108481197077" x2="133.71945879316334" y2="126.02437019731552"><title></title></line><line x1="176.79707998183872" y1="159.87467555896438" x2="166.46859728511103" y2="129.7577754045961"><title></title></line><line x1="176.79707998183872" y1="159.87467555896438" x2="144.36808543842182" y2="156.7108481197077"><title></title></line><line x1="80.56291614698515" y1="173.44292002377355" x2="65.40697403337325" y2="145.55321878859206"><title></title></line><line x1="65.40697403337325" y1="145.55321878859206" x2="95.01222294814545" y2="143.15642257262965"><title></title></line><line x1="80.56291614698515" y1="173.44292002377355" x2="95.01222294814545" y2="143.15642257262965"><title></title></line><line x1="112.71626193524548" y1="210.53578271495238" x2="129.21930007216372" y2="184.60005394692868"><title></title></line><line x1="129.21930007216372" y1="184.60005394692868" x2="144.36808543842182" y2="156.7108481197077"><title></title></line><line x1="125.65972188959108" y1="85.14096744270155" x2="158.5493414074048" y2="87.07995337251718"><title></title></line><line x1="125.65972188959108" y1="85.14096744270155" x2="145.5920328288045" y2="57.69141316865388"><title></title></line><line x1="158.5493414074048" y1="87.07995337251718" x2="145.5920328288045" y2="57.69141316865388"><title></title></line><line x1="217.18434778906456" y1="137.2842744726195" x2="242.18357741303103" y2="155.4245181881853"><title></title></line></g><g stroke-width="1.5"><circle stroke="#1f77b4" r="5" fill="#1f77b4" class="gender-m" cx="165.01255005600217" cy="209.54789290642026"></circle><circle stroke="#1f77b4" r="5" fill="#1f77b4" class="gender-m" cx="113.91830726516221" cy="55.00408898621821"></circle><circle stroke="#1f77b4" r="5" fill="#1f77b4" class="gender-m" cx="204.77312472075823" cy="191.53386127339522"></circle><circle stroke="#1f77b4" r="5" fill="#1f77b4" class="gender-m" cx="204.70213943551894" cy="222.87289177855652"></circle><circle stroke="#ff7f0e" r="5" fill="white" class="gender-wnb" cx="144.36808543842182" cy="156.7108481197077"></circle><circle stroke="#ff7f0e" r="5" fill="white" class="gender-wnb" cx="207.03489487328542" cy="94.16850790540013"></circle><circle stroke="#1f77b4" r="5" fill="#1f77b4" class="gender-m" cx="125.13087243984828" cy="245.87439469456476"></circle><circle stroke="#ff7f0e" r="5" fill="white" class="gender-wnb" cx="133.71945879316334" cy="126.02437019731552"></circle><circle stroke="#ff7f0e" r="5" fill="white" class="gender-wnb" cx="176.79707998183872" cy="159.87467555896438"></circle><circle stroke="#1f77b4" r="5" fill="#1f77b4" class="gender-m" cx="65.40697403337325" cy="145.55321878859206"></circle><circle stroke="#1f77b4" r="5" fill="#1f77b4" class="gender-m" cx="95.01222294814545" cy="143.15642257262965"></circle><circle stroke="#1f77b4" r="5" fill="#1f77b4" class="gender-m" cx="129.21930007216372" cy="184.60005394692868"></circle><circle stroke="#1f77b4" r="5" fill="#1f77b4" class="gender-m" cx="125.65972188959108" cy="85.14096744270155"></circle><circle stroke="#ff7f0e" r="5" fill="white" class="gender-wnb" cx="166.46859728511103" cy="129.7577754045961"></circle><circle stroke="#1f77b4" r="5" fill="#1f77b4" class="gender-m" cx="80.56291614698515" cy="173.44292002377355"></circle><circle stroke="#1f77b4" r="5" fill="#1f77b4" class="gender-m" cx="145.5920328288045" cy="57.69141316865388"></circle><circle stroke="#ff7f0e" r="5" fill="white" class="gender-wnb" cx="158.5493414074048" cy="87.07995337251718"></circle><circle stroke="#1f77b4" r="5" fill="#1f77b4" class="gender-m" cx="38.946289449074044" cy="145.26199446887858"></circle><circle stroke="#1f77b4" r="5" fill="#1f77b4" class="gender-m" cx="196.93883358219372" cy="59.08158512268371"></circle><circle stroke="#ff7f0e" r="5" fill="white" class="gender-wnb" cx="169.41572322291648" cy="249.894910343655"></circle><circle stroke="#ff7f0e" r="5" fill="white" class="gender-wnb" cx="112.71626193524548" cy="210.53578271495238"></circle><circle stroke="#1f77b4" r="5" fill="#1f77b4" class="gender-m" cx="242.67519112525022" cy="198.37855209620392"></circle><circle stroke="#1f77b4" r="5" fill="#1f77b4" class="gender-m" cx="77.91194143155396" cy="221.50929406461938"></circle><circle stroke="#1f77b4" r="5" fill="#1f77b4" class="gender-m" cx="217.18434778906456" cy="137.2842744726195"></circle><circle stroke="#1f77b4" r="5" fill="#1f77b4" class="gender-m" cx="242.18357741303103" cy="155.4245181881853"></circle><circle stroke="#1f77b4" r="5" fill="#1f77b4" class="gender-m" cx="73.7054043565427" cy="94.18815522655451"></circle><circle stroke="#1f77b4" r="5" fill="#1f77b4" class="gender-m" cx="243.0269031148297" cy="108.19257692823939"></circle></g><g></g></svg>
